<?xml version="1.0" encoding="utf-8"?>
<!-- Generator: Adobe Illustrator 22.1.0, SVG Export Plug-In . SVG Version: 6.00 Build 0)  -->
<svg version="1.1" id="Capa_1" xmlns="http://www.w3.org/2000/svg" xmlns:xlink="http://www.w3.org/1999/xlink" x="0px" y="0px"
	 viewBox="0 0 208.5 259.5" style="enable-background:new 0 0 208.5 259.5;" xml:space="preserve">
<style type="text/css">
	.st0{fill:#C66DAC;}
	.st1{fill:url(#SVGID_1_);}
	.st2{fill:url(#SVGID_2_);}
	.st3{fill:url(#SVGID_3_);}
	.st4{fill:#7555A3;}
</style>
<circle class="st0" cx="91.7" cy="62.9" r="55.5"/>
<g>
	
		<linearGradient id="SVGID_1_" gradientUnits="userSpaceOnUse" x1="1716.6783" y1="2296.7058" x2="1861.9238" y2="2296.7058" gradientTransform="matrix(0.7071 -0.7071 -0.7071 -0.7071 418.704 3033.3503)">
		<stop  offset="0" style="stop-color:#CC1E82"/>
		<stop  offset="0.1271" style="stop-color:#D44097"/>
		<stop  offset="0.3195" style="stop-color:#D36AA9"/>
		<stop  offset="0.5074" style="stop-color:#D98ABB"/>
		<stop  offset="0.6872" style="stop-color:#DDA0C8"/>
		<stop  offset="0.8553" style="stop-color:#E1ACCF"/>
		<stop  offset="1" style="stop-color:#E3B1D2"/>
	</linearGradient>
	<path class="st1" d="M116,102.9l-97.2,97.2c-1.5,1.5-3.9,1.6-5.2,0.3s-1.2-3.7,0.3-5.2l41.8-41.9c1.5-1.5,1.7-3.9,0.3-5.2
		c-1.3-1.4-3.7-1.2-5.2,0.3l-4.2,4.1l-7.9,7.9c-1.5,1.5-3.9,1.6-5.2,0.3s-1.2-3.7,0.3-5.2L93.2,96c1.5-1.6,3.9-1.6,5.2-0.3
		c1.3,1.4,1.2,3.7-0.3,5.2l-4.2,4.2c-1.5,1.6-1.7,3.9-0.3,5.2c1.3,1.4,3.7,1.2,5.2-0.3L111,98c1.5-1.6,3.9-1.6,5.2-0.3
		C117.7,99,117.5,101.4,116,102.9z"/>
	
		<linearGradient id="SVGID_2_" gradientUnits="userSpaceOnUse" x1="1742.0872" y1="2310.5654" x2="1834.0826" y2="2310.5654" gradientTransform="matrix(0.7071 -0.7071 -0.7071 -0.7071 418.704 3033.3503)">
		<stop  offset="0" style="stop-color:#CC1E82"/>
		<stop  offset="0.1271" style="stop-color:#D44097"/>
		<stop  offset="0.3195" style="stop-color:#D36AA9"/>
		<stop  offset="0.5074" style="stop-color:#D98ABB"/>
		<stop  offset="0.6872" style="stop-color:#DDA0C8"/>
		<stop  offset="0.8553" style="stop-color:#E1ACCF"/>
		<stop  offset="1" style="stop-color:#E3B1D2"/>
	</linearGradient>
	<path class="st2" d="M26.9,172.4l59.5-59.5c1.5-1.6,1.7-3.9,0.3-5.2c-1.3-1.4-3.7-1.2-5.2,0.3L67,122.4c-1.5,1.6-3.9,1.6-5.3,0.3
		c-1.3-1.4-1.2-3.7,0.3-5.2l5.9-5.9l7.9-7.9c1.5-1.6,1.7-3.9,0.3-5.2c-1.3-1.4-3.7-1.2-5.2,0.3l-51,51c-1.5,1.5-1.7,3.9-0.3,5.2
		c1.3,1.4,3.7,1.2,5.2-0.3l4.2-4.2c1.5-1.5,3.9-1.6,5.2-0.3s1.2,3.7-0.3,5.2l-12.1,12.1c-1.5,1.5-1.7,3.9-0.3,5.2
		C23.1,174,25.4,173.9,26.9,172.4z"/>
</g>
<linearGradient id="SVGID_3_" gradientUnits="userSpaceOnUse" x1="1686.3973" y1="2255.3772" x2="1940.2512" y2="2255.3772" gradientTransform="matrix(0.7071 -0.7071 -0.7071 -0.7071 418.704 3033.3503)">
	<stop  offset="0" style="stop-color:#ED1175"/>
	<stop  offset="6.090000e-02" style="stop-color:#E81E80"/>
	<stop  offset="0.2086" style="stop-color:#D4589A"/>
	<stop  offset="0.3558" style="stop-color:#C28AB1"/>
	<stop  offset="0.4991" style="stop-color:#B3B5C4"/>
	<stop  offset="0.6375" style="stop-color:#A8D4D2"/>
	<stop  offset="0.7699" style="stop-color:#A9DBD4"/>
	<stop  offset="0.8936" style="stop-color:#AADCD3"/>
	<stop  offset="1" style="stop-color:#AADCD2"/>
</linearGradient>
<path class="st3" d="M195.9,84.9L34.6,246.1c-5,5-13.3,5-18.3,0l0,0c-5-5-5-13.2,0-18.2L177.6,66.6c5-5,13.2-5,18.2,0l0,0
	C200.9,71.6,200.9,79.9,195.9,84.9z"/>
<path class="st4" d="M155,24.5c4.3-4.4,11.4-4.4,15.7,0l0,0c4.3,4.4,4.3,11.4,0,15.7l-18.9,19c-4.3,4.4-11.4,4.4-15.7,0l0,0
	c-4.3-4.4-4.3-11.4,0-15.7L155,24.5z"/>
</svg>
