<?xml version="1.0" encoding="utf-8"?>
<!-- Generator: Adobe Illustrator 22.1.0, SVG Export Plug-In . SVG Version: 6.00 Build 0)  -->
<svg version="1.1" id="Layer_1" xmlns="http://www.w3.org/2000/svg" xmlns:xlink="http://www.w3.org/1999/xlink" x="0px" y="0px"
	 viewBox="0 0 2386 2127.9" style="enable-background:new 0 0 2386 2127.9;" xml:space="preserve">
<style type="text/css">
	.st0{opacity:0.3;}
	.st1{fill:url(#SVGID_1_);}
	.st2{fill:url(#SVGID_2_);}
	.st3{fill:url(#SVGID_3_);}
	.st4{fill:url(#SVGID_4_);}
	.st5{fill:url(#SVGID_5_);}
	.st6{fill:url(#SVGID_6_);}
	.st7{fill:#DD66CC;}
	.st8{fill:url(#SVGID_7_);}
	.st9{fill:url(#SVGID_8_);}
	.st10{fill:url(#SVGID_9_);}
	.st11{fill:url(#SVGID_10_);}
	.st12{fill:url(#SVGID_11_);}
	.st13{fill:url(#SVGID_12_);}
	.st14{fill:url(#SVGID_13_);}
	.st15{fill:url(#SVGID_14_);}
	.st16{fill:url(#SVGID_15_);}
	.st17{fill:url(#SVGID_16_);}
	.st18{fill:url(#SVGID_17_);}
	.st19{fill:url(#SVGID_18_);}
	.st20{fill:url(#SVGID_19_);}
	.st21{fill:#7E49C6;}
	.st22{opacity:0.39;fill:url(#SVGID_20_);}
	.st23{fill:url(#SVGID_21_);}
	.st24{fill:url(#SVGID_22_);}
	.st25{fill:url(#SVGID_23_);}
	.st26{fill:url(#SVGID_24_);}
	.st27{fill:url(#SVGID_25_);}
	.st28{fill:url(#SVGID_26_);}
	.st29{fill:url(#SVGID_27_);}
	.st30{fill:url(#SVGID_28_);}
	.st31{fill:url(#SVGID_29_);}
	.st32{fill:url(#SVGID_30_);}
	.st33{fill:url(#SVGID_31_);}
	.st34{fill:url(#SVGID_32_);}
	.st35{fill:url(#SVGID_33_);}
	.st36{opacity:0.13;}
	.st37{fill:url(#SVGID_34_);}
	.st38{fill:url(#SVGID_35_);}
	.st39{fill:url(#SVGID_36_);}
	.st40{fill:url(#SVGID_37_);}
	.st41{fill:url(#SVGID_38_);}
	.st42{fill:url(#SVGID_39_);}
	.st43{fill:#FFFFFF;}
	.st44{fill:url(#SVGID_40_);}
	.st45{fill:url(#SVGID_41_);}
	.st46{fill:url(#SVGID_42_);}
	.st47{fill:url(#SVGID_43_);}
	.st48{fill:url(#SVGID_44_);}
	.st49{fill:url(#SVGID_45_);}
	.st50{fill:url(#SVGID_46_);}
	.st51{fill:url(#SVGID_47_);}
	.st52{fill:url(#SVGID_48_);}
	.st53{fill:url(#SVGID_49_);}
	.st54{fill:url(#SVGID_50_);}
	.st55{fill:url(#SVGID_51_);}
	.st56{fill:url(#SVGID_52_);}
</style>
<g class="st0">
	
		<linearGradient id="SVGID_1_" gradientUnits="userSpaceOnUse" x1="1401.4343" y1="585.5782" x2="2492.7229" y2="585.5782" gradientTransform="matrix(0.7071 -0.7071 0.7071 0.7071 -176.9671 2437.1548)">
		<stop  offset="0" style="stop-color:#FFCCFF"/>
		<stop  offset="1" style="stop-color:#34A5DF"/>
	</linearGradient>
	<path class="st1" d="M1999.7,1225.6L1365,1860.3c-37.7,37.7-99.3,37.7-137,0l0,0c-37.7-37.7-37.7-99.3,0-137l634.7-634.7
		c37.7-37.7,99.3-37.7,137,0h0C2037.4,1126.3,2037.4,1187.9,1999.7,1225.6z"/>
	
		<linearGradient id="SVGID_2_" gradientUnits="userSpaceOnUse" x1="1555.8694" y1="387.7852" x2="2826.8911" y2="387.7852" gradientTransform="matrix(0.7071 -0.7071 0.7071 0.7071 -176.9671 2437.1548)">
		<stop  offset="0" style="stop-color:#CC1A82"/>
		<stop  offset="0.1271" style="stop-color:#D73A9D"/>
		<stop  offset="0.3195" style="stop-color:#E563C0"/>
		<stop  offset="0.5074" style="stop-color:#F084DB"/>
		<stop  offset="0.6872" style="stop-color:#F89BEF"/>
		<stop  offset="0.8553" style="stop-color:#FDA9FB"/>
		<stop  offset="1" style="stop-color:#FFAEFF"/>
	</linearGradient>
	<path class="st2" d="M2096.1,970.2l-641,641c-70.9,70.9-186.9,70.9-257.8,0l0,0c-70.9-70.9-70.9-186.9,0-257.8l641-641
		c70.9-70.9,186.9-70.9,257.8,0l0,0C2167,783.4,2167,899.4,2096.1,970.2z"/>
	
		<linearGradient id="SVGID_3_" gradientUnits="userSpaceOnUse" x1="1437.6328" y1="290.463" x2="1945.4514" y2="290.463" gradientTransform="matrix(0.7071 -0.7071 0.7071 0.7071 -176.9671 2437.1548)">
		<stop  offset="0" style="stop-color:#A4CCD0"/>
		<stop  offset="1" style="stop-color:#34A5DF"/>
	</linearGradient>
	<path class="st3" d="M1404,1303.5L1081.5,1626c-10,10-26.5,10-36.5,0l0,0c-10-10.1-10-26.5,0-36.5l322.5-322.5
		c10.1-10,26.5-10,36.5,0l0,0C1414.1,1277,1414.1,1293.4,1404,1303.5z"/>
	
		<linearGradient id="SVGID_4_" gradientUnits="userSpaceOnUse" x1="2399.9338" y1="149.2386" x2="2907.751" y2="149.2386" gradientTransform="matrix(0.7071 -0.7071 0.7071 0.7071 -176.9671 2437.1548)">
		<stop  offset="0" style="stop-color:#CC1A82"/>
		<stop  offset="0.1271" style="stop-color:#D73A9D"/>
		<stop  offset="0.3195" style="stop-color:#E563C0"/>
		<stop  offset="0.5074" style="stop-color:#F084DB"/>
		<stop  offset="0.6872" style="stop-color:#F89BEF"/>
		<stop  offset="0.8553" style="stop-color:#FDA9FB"/>
		<stop  offset="1" style="stop-color:#FFAEFF"/>
	</linearGradient>
	<path class="st4" d="M1984.6,523.2l-322.5,322.5c-10,10-26.5,10-36.5,0l0,0c-10-10-10-26.5,0-36.5l322.5-322.5
		c10-10,26.5-10,36.5,0l0,0C1994.7,496.7,1994.7,513.1,1984.6,523.2z"/>
	
		<linearGradient id="SVGID_5_" gradientUnits="userSpaceOnUse" x1="2449.197" y1="474.385" x2="2957.0142" y2="474.385" gradientTransform="matrix(0.7071 -0.7071 0.7071 0.7071 -176.9671 2437.1548)">
		<stop  offset="0" style="stop-color:#F20074"/>
		<stop  offset="6.090000e-02" style="stop-color:#E91B80"/>
		<stop  offset="0.2086" style="stop-color:#D4569A"/>
		<stop  offset="0.3558" style="stop-color:#C28AB1"/>
		<stop  offset="0.4991" style="stop-color:#B3B4C4"/>
		<stop  offset="0.6375" style="stop-color:#A8D5D2"/>
		<stop  offset="0.7699" style="stop-color:#A0ECDD"/>
		<stop  offset="0.8936" style="stop-color:#9BFAE3"/>
		<stop  offset="1" style="stop-color:#99FFE5"/>
	</linearGradient>
	<path class="st5" d="M2249.4,718.2l-322.5,322.5c-10.1,10-26.5,10-36.5,0l0,0c-10.1-10-10.1-26.5,0-36.5l322.5-322.5
		c10-10,26.5-10,36.5,0l0,0C2259.4,691.7,2259.4,708.2,2249.4,718.2z"/>
	
		<linearGradient id="SVGID_6_" gradientUnits="userSpaceOnUse" x1="1237.4796" y1="51.9165" x2="2592.8945" y2="51.9165" gradientTransform="matrix(0.7071 -0.7071 0.7071 0.7071 -176.9671 2437.1548)">
		<stop  offset="0" style="stop-color:#F20074"/>
		<stop  offset="6.090000e-02" style="stop-color:#E91B80"/>
		<stop  offset="0.2086" style="stop-color:#D4569A"/>
		<stop  offset="0.3558" style="stop-color:#C28AB1"/>
		<stop  offset="0.4991" style="stop-color:#B3B4C4"/>
		<stop  offset="0.6375" style="stop-color:#A8D5D2"/>
		<stop  offset="0.7699" style="stop-color:#A0ECDD"/>
		<stop  offset="0.8936" style="stop-color:#9BFAE3"/>
		<stop  offset="1" style="stop-color:#99FFE5"/>
	</linearGradient>
	<path class="st6" d="M1555.8,617.6L1440,733.4c-53.4-6-108.9,11.3-149.6,52l-557.7,557.7c-2,2-3.9,4-5.7,6
		c-51.6,56.5,31.7,135.3,85.8,81.1l53.7-53.7c21.8-21.8,66.4-12.4,88.2,9.3l2.3,2.3c21.8,21.8,26.5,61.8,4.7,83.6l-137.5,137.5
		c-50.9,50.9,22.8,129.6,76.3,81.3c2.3-2.1,4.6-4.2,6.8-6.4l641-641c58.8-58.8,69.2-148.2,30-218.1l92.6-92.6
		c31.6-31.6,31.5-83.1-0.2-114.8l0,0C1638.9,586.2,1587.4,586,1555.8,617.6z"/>
	<circle class="st7" cx="2047.3" cy="567.3" r="44.3"/>
	
		<linearGradient id="SVGID_7_" gradientUnits="userSpaceOnUse" x1="2066.4209" y1="240.7865" x2="2569.3115" y2="240.7865" gradientTransform="matrix(0.7071 -0.7071 0.7071 0.7071 -176.9671 2437.1548)">
		<stop  offset="0" style="stop-color:#A4CCD0"/>
		<stop  offset="1" style="stop-color:#34A5DF"/>
	</linearGradient>
	<path class="st8" d="M1810.1,865.7l-280.6,280.6c-20.6,20.6-54.4,20.6-75,0l0,0c-20.6-20.6-20.6-54.4,0-75l280.6-280.6
		c20.6-20.6,54.4-20.6,75,0l0,0C1830.7,811.3,1830.7,845,1810.1,865.7z"/>
	<g>
		<g>
			
				<linearGradient id="SVGID_8_" gradientUnits="userSpaceOnUse" x1="2506.1023" y1="632.833" x2="2849.5366" y2="632.833" gradientTransform="matrix(0.7071 -0.7071 0.7071 0.7071 -176.9671 2437.1548)">
				<stop  offset="0" style="stop-color:#FFCCFF"/>
				<stop  offset="1" style="stop-color:#34A5DF"/>
			</linearGradient>
			<path class="st9" d="M2265.9,908.7c-7.8,7.8-15.8,7.7-22.9,7.6c-6.5-0.1-11.6-0.2-17,5.2c-5.4,5.4-5.3,10.5-5.2,17
				c0.1,7.1,0.2,15.1-7.6,22.9c-7.8,7.8-15.8,7.7-22.9,7.6c-6.5-0.1-11.6-0.2-17,5.2c-5.4,5.4-5.3,10.5-5.2,17
				c0.1,7.1,0.2,15.1-7.6,22.9c-7.8,7.8-15.8,7.7-22.9,7.6c-6.5-0.1-11.6-0.2-17,5.2c-5.4,5.4-5.3,10.5-5.2,17
				c0.1,7.1,0.2,15.1-7.6,22.9c-7.8,7.8-15.8,7.7-22.9,7.6c-6.5-0.1-11.6-0.2-17,5.2c-5.4,5.4-5.3,10.5-5.2,17
				c0.1,7.1,0.2,15.1-7.6,22.9c-1.6,1.6-4.2,1.6-5.8,0c-1.6-1.6-1.6-4.2,0-5.8c5.4-5.4,5.3-10.5,5.2-17c-0.1-7.1-0.2-15.1,7.6-22.9
				c7.8-7.8,15.8-7.7,22.9-7.6c6.5,0.1,11.6,0.2,17-5.2c5.4-5.4,5.3-10.5,5.2-17c-0.1-7.1-0.2-15.1,7.6-22.9
				c7.8-7.8,15.8-7.7,22.9-7.6c6.5,0.1,11.6,0.2,17-5.2c5.4-5.4,5.3-10.5,5.2-17c-0.1-7.1-0.2-15.1,7.6-22.9
				c7.8-7.8,15.8-7.7,22.9-7.6c6.5,0.1,11.6,0.2,17-5.2c5.4-5.4,5.3-10.5,5.2-17c-0.1-7.1-0.2-15.1,7.6-22.9
				c7.8-7.8,15.8-7.7,22.9-7.6c6.5,0.1,11.6,0.2,17-5.2c5.4-5.4,5.3-10.5,5.2-17c-0.1-7.1-0.2-15.1,7.6-22.9c1.6-1.6,4.2-1.6,5.8,0
				s1.6,4.2,0,5.8c-5.4,5.4-5.3,10.5-5.2,17C2273.6,892.8,2273.7,900.9,2265.9,908.7z"/>
			
				<linearGradient id="SVGID_9_" gradientUnits="userSpaceOnUse" x1="2506.1016" y1="664.844" x2="2849.5374" y2="664.844" gradientTransform="matrix(0.7071 -0.7071 0.7071 0.7071 -176.9671 2437.1548)">
				<stop  offset="0" style="stop-color:#FFCCFF"/>
				<stop  offset="1" style="stop-color:#34A5DF"/>
			</linearGradient>
			<path class="st10" d="M2288.5,931.3c-7.8,7.8-15.8,7.7-22.9,7.6c-6.5-0.1-11.6-0.2-17,5.2c-5.4,5.4-5.3,10.5-5.2,17
				c0.1,7.1,0.2,15.1-7.6,22.9c-7.8,7.8-15.8,7.7-22.9,7.6c-6.5-0.1-11.6-0.2-17,5.2c-5.4,5.4-5.3,10.5-5.2,17
				c0.1,7.1,0.2,15.1-7.6,22.9c-7.8,7.8-15.8,7.7-22.9,7.6c-6.5-0.1-11.6-0.2-17,5.2c-5.4,5.4-5.3,10.5-5.2,17
				c0.1,7.1,0.2,15.1-7.6,22.9s-15.8,7.7-22.9,7.6c-6.5-0.1-11.6-0.2-17,5.2c-5.4,5.4-5.3,10.5-5.2,17c0.1,7.1,0.2,15.1-7.6,22.9
				c-1.6,1.6-4.2,1.6-5.8,0s-1.6-4.2,0-5.8c5.4-5.4,5.3-10.5,5.2-17c-0.1-7.1-0.2-15.1,7.6-22.9c7.8-7.8,15.8-7.7,22.9-7.6
				c6.5,0.1,11.6,0.2,17-5.2c5.4-5.4,5.3-10.5,5.2-17c-0.1-7.1-0.2-15.1,7.6-22.9c7.8-7.8,15.8-7.7,22.9-7.6
				c6.5,0.1,11.6,0.2,17-5.2c5.4-5.4,5.3-10.5,5.2-17c-0.1-7.1-0.2-15.1,7.6-22.9c7.8-7.8,15.8-7.7,22.9-7.6
				c6.5,0.1,11.6,0.2,17-5.2c5.4-5.4,5.3-10.5,5.2-17c-0.1-7.1-0.2-15.1,7.6-22.9c7.8-7.8,15.8-7.7,22.9-7.6
				c6.5,0.1,11.6,0.2,17-5.2c5.4-5.4,5.3-10.5,5.2-17c-0.1-7.1-0.2-15.1,7.6-22.9c1.6-1.6,4.2-1.6,5.8,0c1.6,1.6,1.6,4.2,0,5.8
				c-5.4,5.4-5.3,10.5-5.2,17C2296.2,915.5,2296.3,923.5,2288.5,931.3z"/>
		</g>
		<g>
			
				<linearGradient id="SVGID_10_" gradientUnits="userSpaceOnUse" x1="2506.1021" y1="700.9053" x2="2849.5364" y2="700.9053" gradientTransform="matrix(0.7071 -0.7071 0.7071 0.7071 -176.9671 2437.1548)">
				<stop  offset="0" style="stop-color:#FFCCFF"/>
				<stop  offset="1" style="stop-color:#34A5DF"/>
			</linearGradient>
			<path class="st11" d="M2314,956.8c-7.8,7.8-15.8,7.7-22.9,7.6c-6.5-0.1-11.6-0.2-17,5.2c-5.4,5.4-5.3,10.5-5.2,17
				c0.1,7.1,0.2,15.1-7.6,22.9c-7.8,7.8-15.8,7.7-22.9,7.6c-6.5-0.1-11.6-0.2-17,5.2c-5.4,5.4-5.3,10.5-5.2,17
				c0.1,7.1,0.2,15.1-7.6,22.9c-7.8,7.8-15.8,7.7-22.9,7.6c-6.5-0.1-11.6-0.2-17,5.2c-5.4,5.4-5.3,10.5-5.2,17
				c0.1,7.1,0.2,15.1-7.6,22.9c-7.8,7.8-15.8,7.7-22.9,7.6c-6.5-0.1-11.6-0.2-17,5.2c-5.4,5.4-5.3,10.5-5.2,17
				c0.1,7.1,0.2,15.1-7.6,22.9c-1.6,1.6-4.2,1.6-5.8,0c-1.6-1.6-1.6-4.2,0-5.8c5.4-5.4,5.3-10.5,5.2-17c-0.1-7.1-0.2-15.1,7.6-22.9
				c7.8-7.8,15.8-7.7,22.9-7.6c6.5,0.1,11.6,0.2,17-5.2c5.4-5.4,5.3-10.5,5.2-17c-0.1-7.1-0.2-15.1,7.6-22.9
				c7.8-7.8,15.8-7.7,22.9-7.6c6.5,0.1,11.6,0.2,17-5.2c5.4-5.4,5.3-10.5,5.2-17c-0.1-7.1-0.2-15.1,7.6-22.9
				c7.8-7.8,15.8-7.7,22.9-7.6c6.5,0.1,11.6,0.2,17-5.2c5.4-5.4,5.3-10.5,5.2-17c-0.1-7.1-0.2-15.1,7.6-22.9
				c7.8-7.8,15.8-7.7,22.9-7.6c6.5,0.1,11.6,0.2,17-5.2c5.4-5.4,5.3-10.5,5.2-17c-0.1-7.1-0.2-15.1,7.6-22.9c1.6-1.6,4.2-1.6,5.8,0
				c1.6,1.6,1.6,4.2,0,5.8c-5.4,5.4-5.3,10.5-5.2,17C2321.7,941,2321.8,949,2314,956.8z"/>
			
				<linearGradient id="SVGID_11_" gradientUnits="userSpaceOnUse" x1="2506.1018" y1="732.9156" x2="2849.5356" y2="732.9156" gradientTransform="matrix(0.7071 -0.7071 0.7071 0.7071 -176.9671 2437.1548)">
				<stop  offset="0" style="stop-color:#FFCCFF"/>
				<stop  offset="1" style="stop-color:#34A5DF"/>
			</linearGradient>
			<path class="st12" d="M2336.6,979.4c-7.8,7.8-15.8,7.7-22.9,7.6c-6.5-0.1-11.6-0.2-17,5.2c-5.4,5.4-5.3,10.5-5.2,17
				c0.1,7.1,0.2,15.1-7.6,22.9c-7.8,7.8-15.8,7.7-22.9,7.6c-6.5-0.1-11.6-0.2-17,5.2c-5.4,5.4-5.3,10.5-5.2,17
				c0.1,7.1,0.2,15.1-7.6,22.9c-7.8,7.8-15.8,7.7-22.9,7.6c-6.5-0.1-11.6-0.2-17,5.2c-5.4,5.4-5.3,10.5-5.2,17
				c0.1,7.1,0.2,15.1-7.6,22.9c-7.8,7.8-15.8,7.7-22.9,7.6c-6.5-0.1-11.6-0.2-17,5.2c-5.4,5.4-5.3,10.5-5.2,17
				c0.1,7.1,0.2,15.1-7.6,22.9c-1.6,1.6-4.2,1.6-5.8,0c-1.6-1.6-1.6-4.2,0-5.8c5.4-5.4,5.3-10.5,5.2-17c-0.1-7.1-0.2-15.1,7.6-22.9
				c7.8-7.8,15.8-7.7,22.9-7.6c6.5,0.1,11.6,0.2,17-5.2c5.4-5.4,5.3-10.5,5.2-17c-0.1-7.1-0.2-15.1,7.6-22.9
				c7.8-7.8,15.8-7.7,22.9-7.6c6.5,0.1,11.6,0.2,17-5.2c5.4-5.4,5.3-10.5,5.2-17c-0.1-7.1-0.2-15.1,7.6-22.9
				c7.8-7.8,15.8-7.7,22.9-7.6c6.5,0.1,11.6,0.2,17-5.2c5.4-5.4,5.3-10.5,5.2-17c-0.1-7.1-0.2-15.1,7.6-22.9
				c7.8-7.8,15.8-7.7,22.9-7.6c6.5,0.1,11.6,0.2,17-5.2c5.4-5.4,5.3-10.5,5.2-17c-0.1-7.1-0.2-15.1,7.6-22.9c1.6-1.6,4.2-1.6,5.8,0
				c1.6,1.6,1.6,4.2,0,5.8c-5.4,5.4-5.3,10.5-5.2,17C2344.3,963.6,2344.5,971.6,2336.6,979.4z"/>
		</g>
	</g>
	<g>
		<g>
			<g>
				
					<linearGradient id="SVGID_12_" gradientUnits="userSpaceOnUse" x1="1251.2286" y1="359.4243" x2="1523.8937" y2="359.4243" gradientTransform="matrix(0.7071 -0.7071 0.7071 0.7071 -176.9671 2437.1548)">
					<stop  offset="0" style="stop-color:#F20074"/>
					<stop  offset="6.090000e-02" style="stop-color:#E91B80"/>
					<stop  offset="0.2086" style="stop-color:#D4569A"/>
					<stop  offset="0.3558" style="stop-color:#C28AB1"/>
					<stop  offset="0.4991" style="stop-color:#B3B4C4"/>
					<stop  offset="0.6375" style="stop-color:#A8D5D2"/>
					<stop  offset="0.7699" style="stop-color:#A0ECDD"/>
					<stop  offset="0.8936" style="stop-color:#9BFAE3"/>
					<stop  offset="1" style="stop-color:#99FFE5"/>
				</linearGradient>
				<path class="st13" d="M1139.2,1644.7c-6.2,6.2-12.6,6.1-18.2,6c-5.2-0.1-9.2-0.1-13.5,4.1c-4.3,4.2-4.2,8.3-4.1,13.5
					c0.1,5.6,0.2,12-6,18.2c-6.2,6.2-12.6,6.1-18.2,6c-5.2-0.1-9.2-0.1-13.5,4.1c-4.3,4.3-4.2,8.3-4.1,13.5c0.1,5.6,0.2,12-6,18.2
					c-6.2,6.2-12.6,6.1-18.2,6c-5.2-0.1-9.2-0.1-13.5,4.1c-4.2,4.2-4.2,8.3-4.1,13.5c0.1,5.6,0.2,12-6,18.2
					c-6.2,6.2-12.6,6.1-18.2,6c-5.2-0.1-9.2-0.1-13.5,4.1c-4.2,4.2-4.2,8.3-4.1,13.5c0.1,5.6,0.2,12-6,18.2c-1.3,1.3-3.3,1.3-4.6,0
					c-1.3-1.3-1.3-3.3,0-4.6c4.2-4.2,4.2-8.3,4.1-13.5c-0.1-5.6-0.2-12,6-18.2c6.2-6.2,12.6-6.1,18.2-6c5.2,0.1,9.2,0.1,13.5-4.1
					c4.3-4.3,4.2-8.3,4.1-13.5c-0.1-5.6-0.2-12,6-18.2c6.2-6.2,12.6-6.1,18.2-6c5.2,0.1,9.2,0.1,13.5-4.1c4.3-4.2,4.2-8.3,4.1-13.5
					c-0.1-5.6-0.2-12,6-18.2c6.2-6.2,12.6-6.1,18.2-6c5.2,0.1,9.2,0.1,13.5-4.1c4.3-4.3,4.2-8.3,4.1-13.5c-0.1-5.6-0.2-12,6-18.2
					c6.2-6.2,12.6-6.1,18.2-6c5.2,0.1,9.2,0.1,13.5-4.1c4.3-4.3,4.2-8.3,4.1-13.5c-0.1-5.6-0.2-12,6-18.2c1.3-1.3,3.3-1.3,4.6,0
					c1.3,1.3,1.3,3.3,0,4.6c-4.3,4.3-4.2,8.3-4.1,13.5C1145.3,1632.1,1145.4,1638.5,1139.2,1644.7z"/>
				
					<linearGradient id="SVGID_13_" gradientUnits="userSpaceOnUse" x1="1251.2314" y1="384.8411" x2="1523.8972" y2="384.8411" gradientTransform="matrix(0.7071 -0.7071 0.7071 0.7071 -176.9671 2437.1548)">
					<stop  offset="0" style="stop-color:#F20074"/>
					<stop  offset="6.090000e-02" style="stop-color:#E91B80"/>
					<stop  offset="0.2086" style="stop-color:#D4569A"/>
					<stop  offset="0.3558" style="stop-color:#C28AB1"/>
					<stop  offset="0.4991" style="stop-color:#B3B4C4"/>
					<stop  offset="0.6375" style="stop-color:#A8D5D2"/>
					<stop  offset="0.7699" style="stop-color:#A0ECDD"/>
					<stop  offset="0.8936" style="stop-color:#9BFAE3"/>
					<stop  offset="1" style="stop-color:#99FFE5"/>
				</linearGradient>
				<path class="st14" d="M1157.2,1662.6c-6.2,6.2-12.6,6.1-18.2,6c-5.2-0.1-9.2-0.1-13.5,4.1c-4.3,4.2-4.2,8.3-4.1,13.5
					c0.1,5.6,0.2,12-6,18.2c-6.2,6.2-12.6,6.1-18.2,6c-5.2-0.1-9.2-0.1-13.5,4.1c-4.2,4.3-4.2,8.3-4.1,13.5c0.1,5.6,0.2,12-6,18.2
					c-6.2,6.2-12.6,6.1-18.2,6c-5.2-0.1-9.2-0.1-13.5,4.1s-4.2,8.3-4.1,13.5c0.1,5.6,0.2,12-6,18.2c-6.2,6.2-12.6,6.1-18.2,6
					c-5.2-0.1-9.2-0.1-13.5,4.1c-4.2,4.2-4.2,8.3-4.1,13.5c0.1,5.6,0.2,12-6,18.2c-1.3,1.3-3.3,1.3-4.6,0c-1.3-1.3-1.3-3.3,0-4.6
					c4.2-4.3,4.2-8.3,4.1-13.5c-0.1-5.6-0.2-12,6-18.2c6.2-6.2,12.6-6.1,18.2-6c5.2,0.1,9.2,0.1,13.5-4.1c4.2-4.3,4.2-8.3,4.1-13.5
					c-0.1-5.6-0.2-12,6-18.2c6.2-6.2,12.6-6.1,18.2-6c5.2,0.1,9.2,0.1,13.5-4.1c4.3-4.3,4.2-8.3,4.1-13.5c-0.1-5.6-0.2-12,6-18.2
					c6.2-6.2,12.6-6.1,18.2-6c5.2,0.1,9.2,0.1,13.5-4.1c4.3-4.3,4.2-8.3,4.1-13.5c-0.1-5.6-0.2-12,6-18.2c6.2-6.2,12.6-6.1,18.2-6
					c5.2,0.1,9.2,0.1,13.5-4.1c4.3-4.3,4.2-8.3,4.1-13.5c-0.1-5.6-0.2-12,6-18.2c1.3-1.3,3.3-1.3,4.6,0c1.3,1.3,1.3,3.3,0,4.6
					c-4.3,4.3-4.2,8.3-4.1,13.5C1163.3,1650.1,1163.4,1656.4,1157.2,1662.6z"/>
			</g>
			<g>
				
					<linearGradient id="SVGID_14_" gradientUnits="userSpaceOnUse" x1="1251.2294" y1="413.4707" x2="1523.8953" y2="413.4707" gradientTransform="matrix(0.7071 -0.7071 0.7071 0.7071 -176.9671 2437.1548)">
					<stop  offset="0" style="stop-color:#F20074"/>
					<stop  offset="6.090000e-02" style="stop-color:#E91B80"/>
					<stop  offset="0.2086" style="stop-color:#D4569A"/>
					<stop  offset="0.3558" style="stop-color:#C28AB1"/>
					<stop  offset="0.4991" style="stop-color:#B3B4C4"/>
					<stop  offset="0.6375" style="stop-color:#A8D5D2"/>
					<stop  offset="0.7699" style="stop-color:#A0ECDD"/>
					<stop  offset="0.8936" style="stop-color:#9BFAE3"/>
					<stop  offset="1" style="stop-color:#99FFE5"/>
				</linearGradient>
				<path class="st15" d="M1177.4,1682.9c-6.2,6.2-12.6,6.1-18.2,6c-5.2-0.1-9.2-0.1-13.5,4.1c-4.2,4.2-4.2,8.3-4.1,13.5
					c0.1,5.6,0.2,12-6,18.2c-6.2,6.2-12.6,6.1-18.2,6c-5.2-0.1-9.2-0.1-13.5,4.1c-4.3,4.3-4.2,8.3-4.1,13.5c0.1,5.6,0.2,12-6,18.2
					c-6.2,6.2-12.6,6.1-18.2,6c-5.2-0.1-9.2-0.1-13.5,4.1c-4.2,4.3-4.2,8.3-4.1,13.5c0.1,5.6,0.2,12-6,18.2
					c-6.2,6.2-12.6,6.1-18.2,6c-5.2-0.1-9.2-0.1-13.5,4.1c-4.2,4.2-4.2,8.3-4.1,13.5c0.1,5.6,0.2,12-6,18.2c-1.3,1.3-3.3,1.3-4.6,0
					c-1.3-1.3-1.3-3.3,0-4.6c4.2-4.3,4.2-8.3,4.1-13.5c-0.1-5.6-0.2-12,6-18.2c6.2-6.2,12.6-6.1,18.2-6c5.2,0.1,9.2,0.1,13.5-4.1
					c4.2-4.2,4.2-8.3,4.1-13.5c-0.1-5.6-0.2-12,6-18.2c6.2-6.2,12.6-6.1,18.2-6c5.2,0.1,9.2,0.1,13.5-4.1c4.3-4.3,4.2-8.3,4.1-13.5
					c-0.1-5.6-0.2-12,6-18.2c6.2-6.2,12.6-6.1,18.2-6c5.2,0.1,9.2,0.1,13.5-4.1c4.3-4.3,4.2-8.3,4.1-13.5c-0.1-5.6-0.2-12,6-18.2
					c6.2-6.2,12.6-6.1,18.2-6c5.2,0.1,9.2,0.1,13.5-4.1c4.3-4.3,4.2-8.3,4.1-13.5c-0.1-5.6-0.2-12,6-18.2c1.3-1.3,3.3-1.3,4.6,0
					c1.3,1.3,1.3,3.3,0,4.6c-4.3,4.3-4.2,8.3-4.1,13.5C1183.5,1670.3,1183.6,1676.7,1177.4,1682.9z"/>
				
					<linearGradient id="SVGID_15_" gradientUnits="userSpaceOnUse" x1="1251.2258" y1="438.8869" x2="1523.8901" y2="438.8869" gradientTransform="matrix(0.7071 -0.7071 0.7071 0.7071 -176.9671 2437.1548)">
					<stop  offset="0" style="stop-color:#F20074"/>
					<stop  offset="6.090000e-02" style="stop-color:#E91B80"/>
					<stop  offset="0.2086" style="stop-color:#D4569A"/>
					<stop  offset="0.3558" style="stop-color:#C28AB1"/>
					<stop  offset="0.4991" style="stop-color:#B3B4C4"/>
					<stop  offset="0.6375" style="stop-color:#A8D5D2"/>
					<stop  offset="0.7699" style="stop-color:#A0ECDD"/>
					<stop  offset="0.8936" style="stop-color:#9BFAE3"/>
					<stop  offset="1" style="stop-color:#99FFE5"/>
				</linearGradient>
				<path class="st16" d="M1195.4,1700.9c-6.2,6.2-12.6,6.1-18.2,6c-5.2-0.1-9.2-0.1-13.5,4.1c-4.3,4.3-4.2,8.3-4.1,13.5
					c0.1,5.6,0.2,12-6,18.2c-6.2,6.2-12.6,6.1-18.2,6c-5.2-0.1-9.2-0.1-13.5,4.1c-4.3,4.2-4.2,8.3-4.1,13.5c0.1,5.6,0.2,12-6,18.2
					c-6.2,6.2-12.6,6.1-18.2,6c-5.2-0.1-9.2-0.1-13.5,4.1c-4.2,4.3-4.2,8.3-4.1,13.5c0.1,5.6,0.2,12-6,18.2
					c-6.2,6.2-12.6,6.1-18.2,6c-5.2-0.1-9.2-0.1-13.5,4.1c-4.2,4.2-4.2,8.3-4.1,13.5c0.1,5.6,0.2,12-6,18.2c-1.3,1.3-3.3,1.3-4.6,0
					c-1.3-1.3-1.3-3.3,0-4.6c4.2-4.2,4.2-8.3,4.1-13.5c-0.1-5.6-0.2-12,6-18.2c6.2-6.2,12.6-6.1,18.2-6c5.2,0.1,9.2,0.1,13.5-4.1
					c4.2-4.2,4.2-8.3,4.1-13.5c-0.1-5.6-0.2-12,6-18.2c6.2-6.2,12.6-6.1,18.2-6c5.2,0.1,9.2,0.1,13.5-4.1c4.3-4.3,4.2-8.3,4.1-13.5
					c-0.1-5.6-0.2-12,6-18.2c6.2-6.2,12.6-6.1,18.2-6c5.2,0.1,9.2,0.1,13.5-4.1c4.3-4.3,4.2-8.3,4.1-13.5c-0.1-5.6-0.2-12,6-18.2
					c6.2-6.2,12.6-6.1,18.2-6c5.2,0.1,9.2,0.1,13.5-4.1c4.3-4.3,4.2-8.3,4.1-13.5c-0.1-5.6-0.2-12,6-18.2c1.3-1.3,3.3-1.3,4.6,0
					c1.3,1.3,1.3,3.3,0,4.6c-4.3,4.3-4.2,8.3-4.1,13.5C1201.5,1688.3,1201.6,1694.7,1195.4,1700.9z"/>
			</g>
		</g>
	</g>
	<g>
		<g>
			
				<linearGradient id="SVGID_16_" gradientUnits="userSpaceOnUse" x1="2121.3555" y1="2284.0183" x2="2411.9763" y2="2284.0183" gradientTransform="matrix(0.7071 -0.7071 -0.7071 -0.7071 1958.7054 4572.8408)">
				<stop  offset="0" style="stop-color:#F20074"/>
				<stop  offset="6.090000e-02" style="stop-color:#E91B80"/>
				<stop  offset="0.2086" style="stop-color:#D4569A"/>
				<stop  offset="0.3558" style="stop-color:#C28AB1"/>
				<stop  offset="0.4991" style="stop-color:#B3B4C4"/>
				<stop  offset="0.6375" style="stop-color:#A8D5D2"/>
				<stop  offset="0.7699" style="stop-color:#A0ECDD"/>
				<stop  offset="0.8936" style="stop-color:#9BFAE3"/>
				<stop  offset="1" style="stop-color:#99FFE5"/>
			</linearGradient>
			<path class="st17" d="M2028.9,1243.1l-194.4,194.4c-3.1,3.1-3.3,7.8-0.6,10.5c2.7,2.7,7.4,2.4,10.5-0.6l83.7-83.7
				c3.1-3.1,7.8-3.3,10.5-0.6c2.7,2.7,2.4,7.4-0.6,10.5l-8.3,8.3l-15.8,15.8c-3.1,3.1-3.3,7.8-0.6,10.5c2.7,2.7,7.4,2.4,10.5-0.6
				l118.9-118.9c3.1-3.1,3.3-7.8,0.6-10.5c-2.7-2.7-7.4-2.4-10.5,0.6l-8.4,8.4c-3.1,3.1-7.8,3.3-10.5,0.6c-2.7-2.7-2.4-7.4,0.6-10.5
				l24.2-24.2c3.1-3.1,3.3-7.8,0.6-10.5C2036.7,1239.8,2031.9,1240.1,2028.9,1243.1z"/>
			
				<linearGradient id="SVGID_17_" gradientUnits="userSpaceOnUse" x1="2172.1501" y1="2256.2703" x2="2356.0752" y2="2256.2703" gradientTransform="matrix(0.7071 -0.7071 -0.7071 -0.7071 1958.7054 4572.8408)">
				<stop  offset="0" style="stop-color:#F20074"/>
				<stop  offset="6.090000e-02" style="stop-color:#E91B80"/>
				<stop  offset="0.2086" style="stop-color:#D4569A"/>
				<stop  offset="0.3558" style="stop-color:#C28AB1"/>
				<stop  offset="0.4991" style="stop-color:#B3B4C4"/>
				<stop  offset="0.6375" style="stop-color:#A8D5D2"/>
				<stop  offset="0.7699" style="stop-color:#A0ECDD"/>
				<stop  offset="0.8936" style="stop-color:#9BFAE3"/>
				<stop  offset="1" style="stop-color:#99FFE5"/>
			</linearGradient>
			<path class="st18" d="M1890,1421.2l118.9-118.9c3.1-3.1,7.8-3.3,10.5-0.6c2.7,2.7,2.4,7.4-0.6,10.5l-28.8,28.8
				c-3.1,3.1-3.3,7.8-0.6,10.5c2.7,2.7,7.4,2.4,10.5-0.6l11.8-11.8l15.8-15.8c3.1-3.1,7.8-3.3,10.5-0.6c2.7,2.7,2.4,7.4-0.6,10.5
				l-102,102c-3.1,3.1-7.8,3.3-10.5,0.6c-2.7-2.7-2.4-7.4,0.6-10.5l8.4-8.4c3.1-3.1,3.3-7.8,0.6-10.5c-2.7-2.7-7.4-2.4-10.5,0.6
				l-24.2,24.2c-3.1,3.1-7.8,3.3-10.5,0.6C1886.7,1429,1887,1424.3,1890,1421.2z"/>
		</g>
	</g>
	<g>
		
			<linearGradient id="SVGID_18_" gradientUnits="userSpaceOnUse" x1="2617.2759" y1="67.7912" x2="2907.8953" y2="67.7912" gradientTransform="matrix(0.7071 -0.7071 0.7071 0.7071 -176.9671 2437.1548)">
			<stop  offset="0" style="stop-color:#CC1A82"/>
			<stop  offset="0.1271" style="stop-color:#D73A9D"/>
			<stop  offset="0.3195" style="stop-color:#E563C0"/>
			<stop  offset="0.5074" style="stop-color:#F084DB"/>
			<stop  offset="0.6872" style="stop-color:#F89BEF"/>
			<stop  offset="0.8553" style="stop-color:#FDA9FB"/>
			<stop  offset="1" style="stop-color:#FFAEFF"/>
		</linearGradient>
		<path class="st19" d="M1936.3,449.2l-194.4,194.4c-3.1,3.1-7.8,3.3-10.5,0.6c-2.7-2.7-2.4-7.4,0.6-10.5l83.7-83.7
			c3.1-3.1,3.3-7.8,0.6-10.5c-2.7-2.7-7.4-2.4-10.5,0.6l-8.3,8.3l-15.8,15.8c-3.1,3.1-7.8,3.3-10.5,0.6c-2.7-2.7-2.4-7.4,0.6-10.5
			l118.9-118.9c3.1-3.1,7.8-3.3,10.5-0.6c2.7,2.7,2.4,7.4-0.6,10.5l-8.4,8.4c-3.1,3.1-3.3,7.8-0.6,10.5c2.7,2.7,7.4,2.4,10.5-0.6
			l24.2-24.2c3.1-3.1,7.8-3.3,10.5-0.6C1939.7,441.4,1939.4,446.2,1936.3,449.2z"/>
		
			<linearGradient id="SVGID_19_" gradientUnits="userSpaceOnUse" x1="2668.0728" y1="40.0437" x2="2851.9951" y2="40.0437" gradientTransform="matrix(0.7071 -0.7071 0.7071 0.7071 -176.9671 2437.1548)">
			<stop  offset="0" style="stop-color:#CC1A82"/>
			<stop  offset="0.1271" style="stop-color:#D73A9D"/>
			<stop  offset="0.3195" style="stop-color:#E563C0"/>
			<stop  offset="0.5074" style="stop-color:#F084DB"/>
			<stop  offset="0.6872" style="stop-color:#F89BEF"/>
			<stop  offset="0.8553" style="stop-color:#FDA9FB"/>
			<stop  offset="1" style="stop-color:#FFAEFF"/>
		</linearGradient>
		<path class="st20" d="M1758.2,588.1l118.9-118.9c3.1-3.1,3.3-7.8,0.6-10.5c-2.7-2.7-7.4-2.4-10.5,0.6l-28.8,28.8
			c-3.1,3.1-7.8,3.3-10.5,0.6c-2.7-2.7-2.4-7.4,0.6-10.5l11.8-11.8l15.8-15.8c3.1-3.1,3.3-7.8,0.6-10.5c-2.7-2.7-7.4-2.4-10.5,0.6
			l-102,102c-3.1,3.1-3.3,7.8-0.6,10.5c2.7,2.7,7.4,2.4,10.5-0.6l8.4-8.4c3.1-3.1,7.8-3.3,10.5-0.6c2.7,2.7,2.4,7.4-0.6,10.5
			l-24.2,24.2c-3.1,3.1-3.3,7.8-0.6,10.5C1750.5,591.4,1755.2,591.1,1758.2,588.1z"/>
	</g>
	<path class="st21" d="M2167.7,597.4c8.7-8.7,22.8-8.7,31.4,0l0,0c8.7,8.7,8.7,22.8,0,31.4l-37.9,37.9c-8.7,8.7-22.8,8.7-31.4,0l0,0
		c-8.7-8.7-8.7-22.8,0-31.4L2167.7,597.4z"/>
</g>
<linearGradient id="SVGID_20_" gradientUnits="userSpaceOnUse" x1="1437.6328" y1="290.463" x2="1945.4514" y2="290.463" gradientTransform="matrix(0.7071 -0.7071 0.7071 0.7071 -176.9671 2437.1548)">
	<stop  offset="0" style="stop-color:#A4CCD0"/>
	<stop  offset="1" style="stop-color:#34A5DF"/>
</linearGradient>
<path class="st22" d="M1404,1303.5L1081.5,1626c-10,10-26.5,10-36.5,0l0,0c-10-10.1-10-26.5,0-36.5l322.5-322.5
	c10.1-10,26.5-10,36.5,0l0,0C1414.1,1277,1414.1,1293.4,1404,1303.5z"/>
<linearGradient id="SVGID_21_" gradientUnits="userSpaceOnUse" x1="2449.197" y1="474.385" x2="2957.0142" y2="474.385" gradientTransform="matrix(0.7071 -0.7071 0.7071 0.7071 -176.9671 2437.1548)">
	<stop  offset="0" style="stop-color:#F20074"/>
	<stop  offset="6.090000e-02" style="stop-color:#E91B80"/>
	<stop  offset="0.2086" style="stop-color:#D4569A"/>
	<stop  offset="0.3558" style="stop-color:#C28AB1"/>
	<stop  offset="0.4991" style="stop-color:#B3B4C4"/>
	<stop  offset="0.6375" style="stop-color:#A8D5D2"/>
	<stop  offset="0.7699" style="stop-color:#A0ECDD"/>
	<stop  offset="0.8936" style="stop-color:#9BFAE3"/>
	<stop  offset="1" style="stop-color:#99FFE5"/>
</linearGradient>
<path class="st23" d="M2249.4,718.2l-322.5,322.5c-10.1,10-26.5,10-36.5,0l0,0c-10.1-10-10.1-26.5,0-36.5l322.5-322.5
	c10-10,26.5-10,36.5,0l0,0C2259.4,691.7,2259.4,708.2,2249.4,718.2z"/>
<circle class="st7" cx="2047.3" cy="567.3" r="44.3"/>
<g>
	<g>
		
			<linearGradient id="SVGID_22_" gradientUnits="userSpaceOnUse" x1="2506.1023" y1="632.833" x2="2849.5366" y2="632.833" gradientTransform="matrix(0.7071 -0.7071 0.7071 0.7071 -176.9671 2437.1548)">
			<stop  offset="0" style="stop-color:#FFCCFF"/>
			<stop  offset="1" style="stop-color:#34A5DF"/>
		</linearGradient>
		<path class="st24" d="M2265.9,908.7c-7.8,7.8-15.8,7.7-22.9,7.6c-6.5-0.1-11.6-0.2-17,5.2c-5.4,5.4-5.3,10.5-5.2,17
			c0.1,7.1,0.2,15.1-7.6,22.9c-7.8,7.8-15.8,7.7-22.9,7.6c-6.5-0.1-11.6-0.2-17,5.2c-5.4,5.4-5.3,10.5-5.2,17
			c0.1,7.1,0.2,15.1-7.6,22.9c-7.8,7.8-15.8,7.7-22.9,7.6c-6.5-0.1-11.6-0.2-17,5.2c-5.4,5.4-5.3,10.5-5.2,17
			c0.1,7.1,0.2,15.1-7.6,22.9c-7.8,7.8-15.8,7.7-22.9,7.6c-6.5-0.1-11.6-0.2-17,5.2c-5.4,5.4-5.3,10.5-5.2,17
			c0.1,7.1,0.2,15.1-7.6,22.9c-1.6,1.6-4.2,1.6-5.8,0c-1.6-1.6-1.6-4.2,0-5.8c5.4-5.4,5.3-10.5,5.2-17c-0.1-7.1-0.2-15.1,7.6-22.9
			c7.8-7.8,15.8-7.7,22.9-7.6c6.5,0.1,11.6,0.2,17-5.2c5.4-5.4,5.3-10.5,5.2-17c-0.1-7.1-0.2-15.1,7.6-22.9
			c7.8-7.8,15.8-7.7,22.9-7.6c6.5,0.1,11.6,0.2,17-5.2c5.4-5.4,5.3-10.5,5.2-17c-0.1-7.1-0.2-15.1,7.6-22.9
			c7.8-7.8,15.8-7.7,22.9-7.6c6.5,0.1,11.6,0.2,17-5.2c5.4-5.4,5.3-10.5,5.2-17c-0.1-7.1-0.2-15.1,7.6-22.9
			c7.8-7.8,15.8-7.7,22.9-7.6c6.5,0.1,11.6,0.2,17-5.2c5.4-5.4,5.3-10.5,5.2-17c-0.1-7.1-0.2-15.1,7.6-22.9c1.6-1.6,4.2-1.6,5.8,0
			s1.6,4.2,0,5.8c-5.4,5.4-5.3,10.5-5.2,17C2273.6,892.8,2273.7,900.9,2265.9,908.7z"/>
		
			<linearGradient id="SVGID_23_" gradientUnits="userSpaceOnUse" x1="2506.1016" y1="664.844" x2="2849.5374" y2="664.844" gradientTransform="matrix(0.7071 -0.7071 0.7071 0.7071 -176.9671 2437.1548)">
			<stop  offset="0" style="stop-color:#FFCCFF"/>
			<stop  offset="1" style="stop-color:#34A5DF"/>
		</linearGradient>
		<path class="st25" d="M2288.5,931.3c-7.8,7.8-15.8,7.7-22.9,7.6c-6.5-0.1-11.6-0.2-17,5.2c-5.4,5.4-5.3,10.5-5.2,17
			c0.1,7.1,0.2,15.1-7.6,22.9c-7.8,7.8-15.8,7.7-22.9,7.6c-6.5-0.1-11.6-0.2-17,5.2c-5.4,5.4-5.3,10.5-5.2,17
			c0.1,7.1,0.2,15.1-7.6,22.9c-7.8,7.8-15.8,7.7-22.9,7.6c-6.5-0.1-11.6-0.2-17,5.2c-5.4,5.4-5.3,10.5-5.2,17
			c0.1,7.1,0.2,15.1-7.6,22.9s-15.8,7.7-22.9,7.6c-6.5-0.1-11.6-0.2-17,5.2c-5.4,5.4-5.3,10.5-5.2,17c0.1,7.1,0.2,15.1-7.6,22.9
			c-1.6,1.6-4.2,1.6-5.8,0s-1.6-4.2,0-5.8c5.4-5.4,5.3-10.5,5.2-17c-0.1-7.1-0.2-15.1,7.6-22.9c7.8-7.8,15.8-7.7,22.9-7.6
			c6.5,0.1,11.6,0.2,17-5.2c5.4-5.4,5.3-10.5,5.2-17c-0.1-7.1-0.2-15.1,7.6-22.9c7.8-7.8,15.8-7.7,22.9-7.6c6.5,0.1,11.6,0.2,17-5.2
			c5.4-5.4,5.3-10.5,5.2-17c-0.1-7.1-0.2-15.1,7.6-22.9c7.8-7.8,15.8-7.7,22.9-7.6c6.5,0.1,11.6,0.2,17-5.2c5.4-5.4,5.3-10.5,5.2-17
			c-0.1-7.1-0.2-15.1,7.6-22.9c7.8-7.8,15.8-7.7,22.9-7.6c6.5,0.1,11.6,0.2,17-5.2c5.4-5.4,5.3-10.5,5.2-17
			c-0.1-7.1-0.2-15.1,7.6-22.9c1.6-1.6,4.2-1.6,5.8,0c1.6,1.6,1.6,4.2,0,5.8c-5.4,5.4-5.3,10.5-5.2,17
			C2296.2,915.5,2296.3,923.5,2288.5,931.3z"/>
	</g>
	<g>
		
			<linearGradient id="SVGID_24_" gradientUnits="userSpaceOnUse" x1="2506.1021" y1="700.9053" x2="2849.5364" y2="700.9053" gradientTransform="matrix(0.7071 -0.7071 0.7071 0.7071 -176.9671 2437.1548)">
			<stop  offset="0" style="stop-color:#FFCCFF"/>
			<stop  offset="1" style="stop-color:#34A5DF"/>
		</linearGradient>
		<path class="st26" d="M2314,956.8c-7.8,7.8-15.8,7.7-22.9,7.6c-6.5-0.1-11.6-0.2-17,5.2c-5.4,5.4-5.3,10.5-5.2,17
			c0.1,7.1,0.2,15.1-7.6,22.9c-7.8,7.8-15.8,7.7-22.9,7.6c-6.5-0.1-11.6-0.2-17,5.2c-5.4,5.4-5.3,10.5-5.2,17
			c0.1,7.1,0.2,15.1-7.6,22.9c-7.8,7.8-15.8,7.7-22.9,7.6c-6.5-0.1-11.6-0.2-17,5.2c-5.4,5.4-5.3,10.5-5.2,17
			c0.1,7.1,0.2,15.1-7.6,22.9c-7.8,7.8-15.8,7.7-22.9,7.6c-6.5-0.1-11.6-0.2-17,5.2c-5.4,5.4-5.3,10.5-5.2,17
			c0.1,7.1,0.2,15.1-7.6,22.9c-1.6,1.6-4.2,1.6-5.8,0c-1.6-1.6-1.6-4.2,0-5.8c5.4-5.4,5.3-10.5,5.2-17c-0.1-7.1-0.2-15.1,7.6-22.9
			c7.8-7.8,15.8-7.7,22.9-7.6c6.5,0.1,11.6,0.2,17-5.2c5.4-5.4,5.3-10.5,5.2-17c-0.1-7.1-0.2-15.1,7.6-22.9
			c7.8-7.8,15.8-7.7,22.9-7.6c6.5,0.1,11.6,0.2,17-5.2c5.4-5.4,5.3-10.5,5.2-17c-0.1-7.1-0.2-15.1,7.6-22.9
			c7.8-7.8,15.8-7.7,22.9-7.6c6.5,0.1,11.6,0.2,17-5.2c5.4-5.4,5.3-10.5,5.2-17c-0.1-7.1-0.2-15.1,7.6-22.9
			c7.8-7.8,15.8-7.7,22.9-7.6c6.5,0.1,11.6,0.2,17-5.2c5.4-5.4,5.3-10.5,5.2-17c-0.1-7.1-0.2-15.1,7.6-22.9c1.6-1.6,4.2-1.6,5.8,0
			c1.6,1.6,1.6,4.2,0,5.8c-5.4,5.4-5.3,10.5-5.2,17C2321.7,941,2321.8,949,2314,956.8z"/>
		
			<linearGradient id="SVGID_25_" gradientUnits="userSpaceOnUse" x1="2506.1018" y1="732.9156" x2="2849.5356" y2="732.9156" gradientTransform="matrix(0.7071 -0.7071 0.7071 0.7071 -176.9671 2437.1548)">
			<stop  offset="0" style="stop-color:#FFCCFF"/>
			<stop  offset="1" style="stop-color:#34A5DF"/>
		</linearGradient>
		<path class="st27" d="M2336.6,979.4c-7.8,7.8-15.8,7.7-22.9,7.6c-6.5-0.1-11.6-0.2-17,5.2c-5.4,5.4-5.3,10.5-5.2,17
			c0.1,7.1,0.2,15.1-7.6,22.9c-7.8,7.8-15.8,7.7-22.9,7.6c-6.5-0.1-11.6-0.2-17,5.2c-5.4,5.4-5.3,10.5-5.2,17
			c0.1,7.1,0.2,15.1-7.6,22.9c-7.8,7.8-15.8,7.7-22.9,7.6c-6.5-0.1-11.6-0.2-17,5.2c-5.4,5.4-5.3,10.5-5.2,17
			c0.1,7.1,0.2,15.1-7.6,22.9c-7.8,7.8-15.8,7.7-22.9,7.6c-6.5-0.1-11.6-0.2-17,5.2c-5.4,5.4-5.3,10.5-5.2,17
			c0.1,7.1,0.2,15.1-7.6,22.9c-1.6,1.6-4.2,1.6-5.8,0c-1.6-1.6-1.6-4.2,0-5.8c5.4-5.4,5.3-10.5,5.2-17c-0.1-7.1-0.2-15.1,7.6-22.9
			c7.8-7.8,15.8-7.7,22.9-7.6c6.5,0.1,11.6,0.2,17-5.2c5.4-5.4,5.3-10.5,5.2-17c-0.1-7.1-0.2-15.1,7.6-22.9
			c7.8-7.8,15.8-7.7,22.9-7.6c6.5,0.1,11.6,0.2,17-5.2c5.4-5.4,5.3-10.5,5.2-17c-0.1-7.1-0.2-15.1,7.6-22.9
			c7.8-7.8,15.8-7.7,22.9-7.6c6.5,0.1,11.6,0.2,17-5.2c5.4-5.4,5.3-10.5,5.2-17c-0.1-7.1-0.2-15.1,7.6-22.9
			c7.8-7.8,15.8-7.7,22.9-7.6c6.5,0.1,11.6,0.2,17-5.2c5.4-5.4,5.3-10.5,5.2-17c-0.1-7.1-0.2-15.1,7.6-22.9c1.6-1.6,4.2-1.6,5.8,0
			c1.6,1.6,1.6,4.2,0,5.8c-5.4,5.4-5.3,10.5-5.2,17C2344.3,963.6,2344.5,971.6,2336.6,979.4z"/>
	</g>
</g>
<g>
	<g>
		<g>
			
				<linearGradient id="SVGID_26_" gradientUnits="userSpaceOnUse" x1="1251.2286" y1="359.4243" x2="1523.8937" y2="359.4243" gradientTransform="matrix(0.7071 -0.7071 0.7071 0.7071 -176.9671 2437.1548)">
				<stop  offset="0" style="stop-color:#F20074"/>
				<stop  offset="6.090000e-02" style="stop-color:#E91B80"/>
				<stop  offset="0.2086" style="stop-color:#D4569A"/>
				<stop  offset="0.3558" style="stop-color:#C28AB1"/>
				<stop  offset="0.4991" style="stop-color:#B3B4C4"/>
				<stop  offset="0.6375" style="stop-color:#A8D5D2"/>
				<stop  offset="0.7699" style="stop-color:#A0ECDD"/>
				<stop  offset="0.8936" style="stop-color:#9BFAE3"/>
				<stop  offset="1" style="stop-color:#99FFE5"/>
			</linearGradient>
			<path class="st28" d="M1139.2,1644.7c-6.2,6.2-12.6,6.1-18.2,6c-5.2-0.1-9.2-0.1-13.5,4.1c-4.3,4.2-4.2,8.3-4.1,13.5
				c0.1,5.6,0.2,12-6,18.2c-6.2,6.2-12.6,6.1-18.2,6c-5.2-0.1-9.2-0.1-13.5,4.1c-4.3,4.3-4.2,8.3-4.1,13.5c0.1,5.6,0.2,12-6,18.2
				c-6.2,6.2-12.6,6.1-18.2,6c-5.2-0.1-9.2-0.1-13.5,4.1c-4.2,4.2-4.2,8.3-4.1,13.5c0.1,5.6,0.2,12-6,18.2c-6.2,6.2-12.6,6.1-18.2,6
				c-5.2-0.1-9.2-0.1-13.5,4.1c-4.2,4.2-4.2,8.3-4.1,13.5c0.1,5.6,0.2,12-6,18.2c-1.3,1.3-3.3,1.3-4.6,0c-1.3-1.3-1.3-3.3,0-4.6
				c4.2-4.2,4.2-8.3,4.1-13.5c-0.1-5.6-0.2-12,6-18.2c6.2-6.2,12.6-6.1,18.2-6c5.2,0.1,9.2,0.1,13.5-4.1c4.3-4.3,4.2-8.3,4.1-13.5
				c-0.1-5.6-0.2-12,6-18.2c6.2-6.2,12.6-6.1,18.2-6c5.2,0.1,9.2,0.1,13.5-4.1c4.3-4.2,4.2-8.3,4.1-13.5c-0.1-5.6-0.2-12,6-18.2
				c6.2-6.2,12.6-6.1,18.2-6c5.2,0.1,9.2,0.1,13.5-4.1c4.3-4.3,4.2-8.3,4.1-13.5c-0.1-5.6-0.2-12,6-18.2c6.2-6.2,12.6-6.1,18.2-6
				c5.2,0.1,9.2,0.1,13.5-4.1c4.3-4.3,4.2-8.3,4.1-13.5c-0.1-5.6-0.2-12,6-18.2c1.3-1.3,3.3-1.3,4.6,0c1.3,1.3,1.3,3.3,0,4.6
				c-4.3,4.3-4.2,8.3-4.1,13.5C1145.3,1632.1,1145.4,1638.5,1139.2,1644.7z"/>
			
				<linearGradient id="SVGID_27_" gradientUnits="userSpaceOnUse" x1="1251.2314" y1="384.8411" x2="1523.8972" y2="384.8411" gradientTransform="matrix(0.7071 -0.7071 0.7071 0.7071 -176.9671 2437.1548)">
				<stop  offset="0" style="stop-color:#F20074"/>
				<stop  offset="6.090000e-02" style="stop-color:#E91B80"/>
				<stop  offset="0.2086" style="stop-color:#D4569A"/>
				<stop  offset="0.3558" style="stop-color:#C28AB1"/>
				<stop  offset="0.4991" style="stop-color:#B3B4C4"/>
				<stop  offset="0.6375" style="stop-color:#A8D5D2"/>
				<stop  offset="0.7699" style="stop-color:#A0ECDD"/>
				<stop  offset="0.8936" style="stop-color:#9BFAE3"/>
				<stop  offset="1" style="stop-color:#99FFE5"/>
			</linearGradient>
			<path class="st29" d="M1157.2,1662.6c-6.2,6.2-12.6,6.1-18.2,6c-5.2-0.1-9.2-0.1-13.5,4.1c-4.3,4.2-4.2,8.3-4.1,13.5
				c0.1,5.6,0.2,12-6,18.2c-6.2,6.2-12.6,6.1-18.2,6c-5.2-0.1-9.2-0.1-13.5,4.1c-4.2,4.3-4.2,8.3-4.1,13.5c0.1,5.6,0.2,12-6,18.2
				c-6.2,6.2-12.6,6.1-18.2,6c-5.2-0.1-9.2-0.1-13.5,4.1s-4.2,8.3-4.1,13.5c0.1,5.6,0.2,12-6,18.2c-6.2,6.2-12.6,6.1-18.2,6
				c-5.2-0.1-9.2-0.1-13.5,4.1c-4.2,4.2-4.2,8.3-4.1,13.5c0.1,5.6,0.2,12-6,18.2c-1.3,1.3-3.3,1.3-4.6,0c-1.3-1.3-1.3-3.3,0-4.6
				c4.2-4.3,4.2-8.3,4.1-13.5c-0.1-5.6-0.2-12,6-18.2c6.2-6.2,12.6-6.1,18.2-6c5.2,0.1,9.2,0.1,13.5-4.1c4.2-4.3,4.2-8.3,4.1-13.5
				c-0.1-5.6-0.2-12,6-18.2c6.2-6.2,12.6-6.1,18.2-6c5.2,0.1,9.2,0.1,13.5-4.1c4.3-4.3,4.2-8.3,4.1-13.5c-0.1-5.6-0.2-12,6-18.2
				c6.2-6.2,12.6-6.1,18.2-6c5.2,0.1,9.2,0.1,13.5-4.1c4.3-4.3,4.2-8.3,4.1-13.5c-0.1-5.6-0.2-12,6-18.2c6.2-6.2,12.6-6.1,18.2-6
				c5.2,0.1,9.2,0.1,13.5-4.1c4.3-4.3,4.2-8.3,4.1-13.5c-0.1-5.6-0.2-12,6-18.2c1.3-1.3,3.3-1.3,4.6,0c1.3,1.3,1.3,3.3,0,4.6
				c-4.3,4.3-4.2,8.3-4.1,13.5C1163.3,1650.1,1163.4,1656.4,1157.2,1662.6z"/>
		</g>
		<g>
			
				<linearGradient id="SVGID_28_" gradientUnits="userSpaceOnUse" x1="1251.2294" y1="413.4707" x2="1523.8953" y2="413.4707" gradientTransform="matrix(0.7071 -0.7071 0.7071 0.7071 -176.9671 2437.1548)">
				<stop  offset="0" style="stop-color:#F20074"/>
				<stop  offset="6.090000e-02" style="stop-color:#E91B80"/>
				<stop  offset="0.2086" style="stop-color:#D4569A"/>
				<stop  offset="0.3558" style="stop-color:#C28AB1"/>
				<stop  offset="0.4991" style="stop-color:#B3B4C4"/>
				<stop  offset="0.6375" style="stop-color:#A8D5D2"/>
				<stop  offset="0.7699" style="stop-color:#A0ECDD"/>
				<stop  offset="0.8936" style="stop-color:#9BFAE3"/>
				<stop  offset="1" style="stop-color:#99FFE5"/>
			</linearGradient>
			<path class="st30" d="M1177.4,1682.9c-6.2,6.2-12.6,6.1-18.2,6c-5.2-0.1-9.2-0.1-13.5,4.1c-4.2,4.2-4.2,8.3-4.1,13.5
				c0.1,5.6,0.2,12-6,18.2c-6.2,6.2-12.6,6.1-18.2,6c-5.2-0.1-9.2-0.1-13.5,4.1c-4.3,4.3-4.2,8.3-4.1,13.5c0.1,5.6,0.2,12-6,18.2
				c-6.2,6.2-12.6,6.1-18.2,6c-5.2-0.1-9.2-0.1-13.5,4.1c-4.2,4.3-4.2,8.3-4.1,13.5c0.1,5.6,0.2,12-6,18.2c-6.2,6.2-12.6,6.1-18.2,6
				c-5.2-0.1-9.2-0.1-13.5,4.1c-4.2,4.2-4.2,8.3-4.1,13.5c0.1,5.6,0.2,12-6,18.2c-1.3,1.3-3.3,1.3-4.6,0c-1.3-1.3-1.3-3.3,0-4.6
				c4.2-4.3,4.2-8.3,4.1-13.5c-0.1-5.6-0.2-12,6-18.2c6.2-6.2,12.6-6.1,18.2-6c5.2,0.1,9.2,0.1,13.5-4.1c4.2-4.2,4.2-8.3,4.1-13.5
				c-0.1-5.6-0.2-12,6-18.2c6.2-6.2,12.6-6.1,18.2-6c5.2,0.1,9.2,0.1,13.5-4.1c4.3-4.3,4.2-8.3,4.1-13.5c-0.1-5.6-0.2-12,6-18.2
				c6.2-6.2,12.6-6.1,18.2-6c5.2,0.1,9.2,0.1,13.5-4.1c4.3-4.3,4.2-8.3,4.1-13.5c-0.1-5.6-0.2-12,6-18.2c6.2-6.2,12.6-6.1,18.2-6
				c5.2,0.1,9.2,0.1,13.5-4.1c4.3-4.3,4.2-8.3,4.1-13.5c-0.1-5.6-0.2-12,6-18.2c1.3-1.3,3.3-1.3,4.6,0c1.3,1.3,1.3,3.3,0,4.6
				c-4.3,4.3-4.2,8.3-4.1,13.5C1183.5,1670.3,1183.6,1676.7,1177.4,1682.9z"/>
			
				<linearGradient id="SVGID_29_" gradientUnits="userSpaceOnUse" x1="1251.2258" y1="438.8869" x2="1523.8901" y2="438.8869" gradientTransform="matrix(0.7071 -0.7071 0.7071 0.7071 -176.9671 2437.1548)">
				<stop  offset="0" style="stop-color:#F20074"/>
				<stop  offset="6.090000e-02" style="stop-color:#E91B80"/>
				<stop  offset="0.2086" style="stop-color:#D4569A"/>
				<stop  offset="0.3558" style="stop-color:#C28AB1"/>
				<stop  offset="0.4991" style="stop-color:#B3B4C4"/>
				<stop  offset="0.6375" style="stop-color:#A8D5D2"/>
				<stop  offset="0.7699" style="stop-color:#A0ECDD"/>
				<stop  offset="0.8936" style="stop-color:#9BFAE3"/>
				<stop  offset="1" style="stop-color:#99FFE5"/>
			</linearGradient>
			<path class="st31" d="M1195.4,1700.9c-6.2,6.2-12.6,6.1-18.2,6c-5.2-0.1-9.2-0.1-13.5,4.1c-4.3,4.3-4.2,8.3-4.1,13.5
				c0.1,5.6,0.2,12-6,18.2c-6.2,6.2-12.6,6.1-18.2,6c-5.2-0.1-9.2-0.1-13.5,4.1c-4.3,4.2-4.2,8.3-4.1,13.5c0.1,5.6,0.2,12-6,18.2
				c-6.2,6.2-12.6,6.1-18.2,6c-5.2-0.1-9.2-0.1-13.5,4.1c-4.2,4.3-4.2,8.3-4.1,13.5c0.1,5.6,0.2,12-6,18.2c-6.2,6.2-12.6,6.1-18.2,6
				c-5.2-0.1-9.2-0.1-13.5,4.1c-4.2,4.2-4.2,8.3-4.1,13.5c0.1,5.6,0.2,12-6,18.2c-1.3,1.3-3.3,1.3-4.6,0c-1.3-1.3-1.3-3.3,0-4.6
				c4.2-4.2,4.2-8.3,4.1-13.5c-0.1-5.6-0.2-12,6-18.2c6.2-6.2,12.6-6.1,18.2-6c5.2,0.1,9.2,0.1,13.5-4.1c4.2-4.2,4.2-8.3,4.1-13.5
				c-0.1-5.6-0.2-12,6-18.2c6.2-6.2,12.6-6.1,18.2-6c5.2,0.1,9.2,0.1,13.5-4.1c4.3-4.3,4.2-8.3,4.1-13.5c-0.1-5.6-0.2-12,6-18.2
				c6.2-6.2,12.6-6.1,18.2-6c5.2,0.1,9.2,0.1,13.5-4.1c4.3-4.3,4.2-8.3,4.1-13.5c-0.1-5.6-0.2-12,6-18.2c6.2-6.2,12.6-6.1,18.2-6
				c5.2,0.1,9.2,0.1,13.5-4.1c4.3-4.3,4.2-8.3,4.1-13.5c-0.1-5.6-0.2-12,6-18.2c1.3-1.3,3.3-1.3,4.6,0c1.3,1.3,1.3,3.3,0,4.6
				c-4.3,4.3-4.2,8.3-4.1,13.5C1201.5,1688.3,1201.6,1694.7,1195.4,1700.9z"/>
		</g>
	</g>
</g>
<g>
	<g>
		
			<linearGradient id="SVGID_30_" gradientUnits="userSpaceOnUse" x1="2121.3555" y1="2284.0183" x2="2411.9763" y2="2284.0183" gradientTransform="matrix(0.7071 -0.7071 -0.7071 -0.7071 1958.7054 4572.8408)">
			<stop  offset="0" style="stop-color:#F20074"/>
			<stop  offset="6.090000e-02" style="stop-color:#E91B80"/>
			<stop  offset="0.2086" style="stop-color:#D4569A"/>
			<stop  offset="0.3558" style="stop-color:#C28AB1"/>
			<stop  offset="0.4991" style="stop-color:#B3B4C4"/>
			<stop  offset="0.6375" style="stop-color:#A8D5D2"/>
			<stop  offset="0.7699" style="stop-color:#A0ECDD"/>
			<stop  offset="0.8936" style="stop-color:#9BFAE3"/>
			<stop  offset="1" style="stop-color:#99FFE5"/>
		</linearGradient>
		<path class="st32" d="M2028.9,1243.1l-194.4,194.4c-3.1,3.1-3.3,7.8-0.6,10.5c2.7,2.7,7.4,2.4,10.5-0.6l83.7-83.7
			c3.1-3.1,7.8-3.3,10.5-0.6c2.7,2.7,2.4,7.4-0.6,10.5l-8.3,8.3l-15.8,15.8c-3.1,3.1-3.3,7.8-0.6,10.5c2.7,2.7,7.4,2.4,10.5-0.6
			l118.9-118.9c3.1-3.1,3.3-7.8,0.6-10.5c-2.7-2.7-7.4-2.4-10.5,0.6l-8.4,8.4c-3.1,3.1-7.8,3.3-10.5,0.6c-2.7-2.7-2.4-7.4,0.6-10.5
			l24.2-24.2c3.1-3.1,3.3-7.8,0.6-10.5C2036.7,1239.8,2031.9,1240.1,2028.9,1243.1z"/>
		
			<linearGradient id="SVGID_31_" gradientUnits="userSpaceOnUse" x1="2172.1501" y1="2256.2703" x2="2356.0752" y2="2256.2703" gradientTransform="matrix(0.7071 -0.7071 -0.7071 -0.7071 1958.7054 4572.8408)">
			<stop  offset="0" style="stop-color:#F20074"/>
			<stop  offset="6.090000e-02" style="stop-color:#E91B80"/>
			<stop  offset="0.2086" style="stop-color:#D4569A"/>
			<stop  offset="0.3558" style="stop-color:#C28AB1"/>
			<stop  offset="0.4991" style="stop-color:#B3B4C4"/>
			<stop  offset="0.6375" style="stop-color:#A8D5D2"/>
			<stop  offset="0.7699" style="stop-color:#A0ECDD"/>
			<stop  offset="0.8936" style="stop-color:#9BFAE3"/>
			<stop  offset="1" style="stop-color:#99FFE5"/>
		</linearGradient>
		<path class="st33" d="M1890,1421.2l118.9-118.9c3.1-3.1,7.8-3.3,10.5-0.6c2.7,2.7,2.4,7.4-0.6,10.5l-28.8,28.8
			c-3.1,3.1-3.3,7.8-0.6,10.5c2.7,2.7,7.4,2.4,10.5-0.6l11.8-11.8l15.8-15.8c3.1-3.1,7.8-3.3,10.5-0.6c2.7,2.7,2.4,7.4-0.6,10.5
			l-102,102c-3.1,3.1-7.8,3.3-10.5,0.6c-2.7-2.7-2.4-7.4,0.6-10.5l8.4-8.4c3.1-3.1,3.3-7.8,0.6-10.5c-2.7-2.7-7.4-2.4-10.5,0.6
			l-24.2,24.2c-3.1,3.1-7.8,3.3-10.5,0.6C1886.7,1429,1887,1424.3,1890,1421.2z"/>
	</g>
</g>
<g>
	
		<linearGradient id="SVGID_32_" gradientUnits="userSpaceOnUse" x1="2617.2759" y1="67.7912" x2="2907.8953" y2="67.7912" gradientTransform="matrix(0.7071 -0.7071 0.7071 0.7071 -176.9671 2437.1548)">
		<stop  offset="0" style="stop-color:#CC1A82"/>
		<stop  offset="0.1271" style="stop-color:#D73A9D"/>
		<stop  offset="0.3195" style="stop-color:#E563C0"/>
		<stop  offset="0.5074" style="stop-color:#F084DB"/>
		<stop  offset="0.6872" style="stop-color:#F89BEF"/>
		<stop  offset="0.8553" style="stop-color:#FDA9FB"/>
		<stop  offset="1" style="stop-color:#FFAEFF"/>
	</linearGradient>
	<path class="st34" d="M1936.3,449.2l-194.4,194.4c-3.1,3.1-7.8,3.3-10.5,0.6c-2.7-2.7-2.4-7.4,0.6-10.5l83.7-83.7
		c3.1-3.1,3.3-7.8,0.6-10.5c-2.7-2.7-7.4-2.4-10.5,0.6l-8.3,8.3l-15.8,15.8c-3.1,3.1-7.8,3.3-10.5,0.6c-2.7-2.7-2.4-7.4,0.6-10.5
		l118.9-118.9c3.1-3.1,7.8-3.3,10.5-0.6c2.7,2.7,2.4,7.4-0.6,10.5l-8.4,8.4c-3.1,3.1-3.3,7.8-0.6,10.5c2.7,2.7,7.4,2.4,10.5-0.6
		l24.2-24.2c3.1-3.1,7.8-3.3,10.5-0.6C1939.7,441.4,1939.4,446.2,1936.3,449.2z"/>
	
		<linearGradient id="SVGID_33_" gradientUnits="userSpaceOnUse" x1="2668.0728" y1="40.0437" x2="2851.9951" y2="40.0437" gradientTransform="matrix(0.7071 -0.7071 0.7071 0.7071 -176.9671 2437.1548)">
		<stop  offset="0" style="stop-color:#CC1A82"/>
		<stop  offset="0.1271" style="stop-color:#D73A9D"/>
		<stop  offset="0.3195" style="stop-color:#E563C0"/>
		<stop  offset="0.5074" style="stop-color:#F084DB"/>
		<stop  offset="0.6872" style="stop-color:#F89BEF"/>
		<stop  offset="0.8553" style="stop-color:#FDA9FB"/>
		<stop  offset="1" style="stop-color:#FFAEFF"/>
	</linearGradient>
	<path class="st35" d="M1758.2,588.1l118.9-118.9c3.1-3.1,3.3-7.8,0.6-10.5c-2.7-2.7-7.4-2.4-10.5,0.6l-28.8,28.8
		c-3.1,3.1-7.8,3.3-10.5,0.6c-2.7-2.7-2.4-7.4,0.6-10.5l11.8-11.8l15.8-15.8c3.1-3.1,3.3-7.8,0.6-10.5c-2.7-2.7-7.4-2.4-10.5,0.6
		l-102,102c-3.1,3.1-3.3,7.8-0.6,10.5c2.7,2.7,7.4,2.4,10.5-0.6l8.4-8.4c3.1-3.1,7.8-3.3,10.5-0.6c2.7,2.7,2.4,7.4-0.6,10.5
		l-24.2,24.2c-3.1,3.1-3.3,7.8-0.6,10.5C1750.5,591.4,1755.2,591.1,1758.2,588.1z"/>
</g>
<path class="st21" d="M2167.7,597.4c8.7-8.7,22.8-8.7,31.4,0l0,0c8.7,8.7,8.7,22.8,0,31.4l-37.9,37.9c-8.7,8.7-22.8,8.7-31.4,0l0,0
	c-8.7-8.7-8.7-22.8,0-31.4L2167.7,597.4z"/>
<g class="st36">
	
		<linearGradient id="SVGID_34_" gradientUnits="userSpaceOnUse" x1="2596.7185" y1="3120.2073" x2="3266.2156" y2="3120.2073" gradientTransform="matrix(-0.719 0.695 -0.695 -0.719 6145.835 1702.9667)">
		<stop  offset="0" style="stop-color:#FFCCFF"/>
		<stop  offset="1" style="stop-color:#34A5DF"/>
	</linearGradient>
	<path class="st37" d="M1630.3,1645.5l395.9-382.7c23.5-22.7,61.3-22.1,84,1.4l0,0c22.7,23.5,22.1,61.3-1.4,84L1712.9,1731
		c-23.5,22.7-61.3,22.1-84-1.4l0,0C1606.2,1706.1,1606.8,1668.2,1630.3,1645.5z"/>
	
		<linearGradient id="SVGID_35_" gradientUnits="userSpaceOnUse" x1="2691.4622" y1="2998.8618" x2="3471.2268" y2="2998.8618" gradientTransform="matrix(-0.719 0.695 -0.695 -0.719 6145.835 1702.9667)">
		<stop  offset="0" style="stop-color:#CC1A82"/>
		<stop  offset="0.1271" style="stop-color:#D73A9D"/>
		<stop  offset="0.3195" style="stop-color:#E563C0"/>
		<stop  offset="0.5074" style="stop-color:#F084DB"/>
		<stop  offset="0.6872" style="stop-color:#F89BEF"/>
		<stop  offset="0.8553" style="stop-color:#FDA9FB"/>
		<stop  offset="1" style="stop-color:#FFAEFF"/>
	</linearGradient>
	<path class="st38" d="M1568.5,1801.2l399.8-386.5c44.2-42.7,115.4-41.5,158.1,2.7h0c42.7,44.2,41.5,115.4-2.7,158.1L1723.9,1962
		c-44.2,42.7-115.4,41.5-158.1-2.7l0,0C1523.1,1915.1,1524.3,1843.9,1568.5,1801.2z"/>
	
		<linearGradient id="SVGID_36_" gradientUnits="userSpaceOnUse" x1="2618.9241" y1="2939.1558" x2="2930.4685" y2="2939.1558" gradientTransform="matrix(-0.719 0.695 -0.695 -0.719 6145.835 1702.9667)">
		<stop  offset="0" style="stop-color:#A4CCD0"/>
		<stop  offset="1" style="stop-color:#34A5DF"/>
	</linearGradient>
	<path class="st39" d="M1996.5,1604l201.2-194.5c6.3-6.1,16.4-5.9,22.4,0.4l0,0c6.1,6.3,5.9,16.4-0.4,22.4l-201.2,194.5
		c-6.3,6.1-16.4,5.9-22.4-0.4h0C1990.1,1620.1,1990.2,1610,1996.5,1604z"/>
	
		<linearGradient id="SVGID_37_" gradientUnits="userSpaceOnUse" x1="3209.2888" y1="2852.5144" x2="3520.8347" y2="2852.5144" gradientTransform="matrix(-0.719 0.695 -0.695 -0.719 6145.835 1702.9667)">
		<stop  offset="0" style="stop-color:#CC1A82"/>
		<stop  offset="0.1271" style="stop-color:#D73A9D"/>
		<stop  offset="0.3195" style="stop-color:#E563C0"/>
		<stop  offset="0.5074" style="stop-color:#F084DB"/>
		<stop  offset="0.6872" style="stop-color:#F89BEF"/>
		<stop  offset="0.8553" style="stop-color:#FDA9FB"/>
		<stop  offset="1" style="stop-color:#FFAEFF"/>
	</linearGradient>
	<path class="st40" d="M1632.2,2076.6l201.2-194.5c6.3-6.1,16.4-5.9,22.4,0.4l0,0c6.1,6.3,5.9,16.4-0.4,22.4l-201.2,194.5
		c-6.3,6.1-16.4,5.9-22.4-0.4v0C1625.8,2092.7,1626,2082.6,1632.2,2076.6z"/>
	
		<linearGradient id="SVGID_38_" gradientUnits="userSpaceOnUse" x1="3239.512" y1="3051.9893" x2="3551.0549" y2="3051.9893" gradientTransform="matrix(-0.719 0.695 -0.695 -0.719 6145.835 1702.9667)">
		<stop  offset="0" style="stop-color:#F20074"/>
		<stop  offset="6.090000e-02" style="stop-color:#E91B80"/>
		<stop  offset="0.2086" style="stop-color:#D4569A"/>
		<stop  offset="0.3558" style="stop-color:#C28AB1"/>
		<stop  offset="0.4991" style="stop-color:#B3B4C4"/>
		<stop  offset="0.6375" style="stop-color:#A8D5D2"/>
		<stop  offset="0.7699" style="stop-color:#A0ECDD"/>
		<stop  offset="0.8936" style="stop-color:#9BFAE3"/>
		<stop  offset="1" style="stop-color:#99FFE5"/>
	</linearGradient>
	<path class="st41" d="M1471.9,1954.2l201.2-194.5c6.3-6.1,16.4-5.9,22.4,0.4l0,0c6.1,6.3,5.9,16.4-0.4,22.4L1493.9,1977
		c-6.3,6.1-16.4,5.9-22.4-0.4l0,0C1465.4,1970.3,1465.6,1960.2,1471.9,1954.2z"/>
	
		<linearGradient id="SVGID_39_" gradientUnits="userSpaceOnUse" x1="2496.1326" y1="2792.8098" x2="3327.6685" y2="2792.8098" gradientTransform="matrix(-0.719 0.695 -0.695 -0.719 6145.835 1702.9667)">
		<stop  offset="0" style="stop-color:#F20074"/>
		<stop  offset="6.090000e-02" style="stop-color:#E91B80"/>
		<stop  offset="0.2086" style="stop-color:#D4569A"/>
		<stop  offset="0.3558" style="stop-color:#C28AB1"/>
		<stop  offset="0.4991" style="stop-color:#B3B4C4"/>
		<stop  offset="0.6375" style="stop-color:#A8D5D2"/>
		<stop  offset="0.7699" style="stop-color:#A0ECDD"/>
		<stop  offset="0.8936" style="stop-color:#9BFAE3"/>
		<stop  offset="1" style="stop-color:#99FFE5"/>
	</linearGradient>
	<path class="st42" d="M1896.3,2023.1l72.2-69.8c32.7,4.3,66.9-5.8,92.3-30.4l347.9-336.3c1.2-1.2,2.4-2.4,3.6-3.6
		c32.3-34.1-18-83.3-51.8-50.7l-33.5,32.4c-13.6,13.1-40.9,6.9-54-6.6l-1.4-1.5c-13.1-13.6-15.6-38.2-2-51.3l85.8-82.9
		c31.8-30.7-12.7-79.7-45.9-50.7c-1.4,1.3-2.8,2.5-4.2,3.9l-399.8,386.5c-36.7,35.4-44,90.2-20.7,133.5l-57.7,55.8
		c-19.7,19.1-20.2,50.7-1.1,70.4l0,0C1845,2041.5,1876.6,2042.2,1896.3,2023.1z"/>
	<path class="st43" d="M2113.4,1656.6l175-169.2c12.9-12.4,33.6-12.1,46,0.8l0,0c12.4,12.9,12.1,33.6-0.8,46l-175,169.2
		c-12.9,12.4-33.6,12.1-46-0.8l0,0C2100.1,1689.7,2100.5,1669,2113.4,1656.6z"/>
	
		<linearGradient id="SVGID_40_" gradientUnits="userSpaceOnUse" x1="3004.6821" y1="2908.6785" x2="3313.2039" y2="2908.6785" gradientTransform="matrix(-0.719 0.695 -0.695 -0.719 6145.835 1702.9667)">
		<stop  offset="0" style="stop-color:#A4CCD0"/>
		<stop  offset="1" style="stop-color:#34A5DF"/>
	</linearGradient>
	<path class="st44" d="M1742.9,1868.3l175-169.2c12.9-12.4,33.6-12.1,46,0.8l0,0c12.4,12.9,12.1,33.6-0.8,46l-175,169.2
		c-12.9,12.4-33.6,12.1-46-0.8l0,0C1729.7,1901.4,1730,1880.7,1742.9,1868.3z"/>
	<g>
		<g>
			<g>
				
					<linearGradient id="SVGID_41_" gradientUnits="userSpaceOnUse" x1="2504.5676" y1="2981.467" x2="2671.8481" y2="2981.467" gradientTransform="matrix(-0.719 0.695 -0.695 -0.719 6145.835 1702.9667)">
					<stop  offset="0" style="stop-color:#F20074"/>
					<stop  offset="6.090000e-02" style="stop-color:#E91B80"/>
					<stop  offset="0.2086" style="stop-color:#D4569A"/>
					<stop  offset="0.3558" style="stop-color:#C28AB1"/>
					<stop  offset="0.4991" style="stop-color:#B3B4C4"/>
					<stop  offset="0.6375" style="stop-color:#A8D5D2"/>
					<stop  offset="0.7699" style="stop-color:#A0ECDD"/>
					<stop  offset="0.8936" style="stop-color:#9BFAE3"/>
					<stop  offset="1" style="stop-color:#99FFE5"/>
				</linearGradient>
				<path class="st45" d="M2162.5,1397.4c3.9-3.7,7.8-3.6,11.2-3.5c3.2,0.1,5.7,0.2,8.3-2.4c2.7-2.6,2.7-5.1,2.7-8.2
					c0-3.5,0-7.4,3.9-11.1c3.9-3.7,7.8-3.6,11.2-3.5c3.2,0.1,5.7,0.2,8.3-2.4c2.7-2.6,2.7-5.1,2.7-8.2c0-3.5,0-7.4,3.9-11.1
					c3.9-3.7,7.8-3.6,11.2-3.5c3.2,0.1,5.7,0.2,8.3-2.4c2.6-2.6,2.7-5.1,2.7-8.2c0-3.5,0-7.4,3.9-11.1c3.9-3.7,7.8-3.6,11.2-3.5
					c3.2,0.1,5.7,0.2,8.3-2.4c2.6-2.6,2.7-5.1,2.7-8.2c0-3.5,0-7.4,3.9-11.1c0.8-0.8,2.1-0.7,2.8,0c0.8,0.8,0.7,2.1,0,2.8
					c-2.7,2.6-2.7,5.1-2.7,8.2c0,3.5,0,7.4-3.9,11.1s-7.8,3.6-11.2,3.5c-3.2-0.1-5.7-0.2-8.3,2.4c-2.7,2.6-2.7,5.1-2.7,8.2
					c0,3.5,0,7.4-3.9,11.1c-3.9,3.7-7.8,3.6-11.2,3.5c-3.2-0.1-5.7-0.2-8.3,2.4c-2.7,2.6-2.7,5.1-2.7,8.2c0,3.5,0,7.4-3.9,11.1
					c-3.9,3.7-7.8,3.6-11.2,3.5c-3.2-0.1-5.7-0.2-8.3,2.4c-2.7,2.6-2.7,5.1-2.7,8.2c0,3.5,0,7.4-3.9,11.1c-3.9,3.7-7.8,3.6-11.2,3.5
					c-3.2-0.1-5.7-0.2-8.3,2.4c-2.7,2.6-2.7,5.1-2.7,8.2c0,3.5,0,7.4-3.9,11.1c-0.8,0.8-2.1,0.7-2.8,0c-0.8-0.8-0.7-2.1,0-2.8
					c2.7-2.6,2.7-5.1,2.7-8.2C2158.6,1405.1,2158.6,1401.2,2162.5,1397.4z"/>
				
					<linearGradient id="SVGID_42_" gradientUnits="userSpaceOnUse" x1="2504.5691" y1="2997.0598" x2="2671.8486" y2="2997.0598" gradientTransform="matrix(-0.719 0.695 -0.695 -0.719 6145.835 1702.9667)">
					<stop  offset="0" style="stop-color:#F20074"/>
					<stop  offset="6.090000e-02" style="stop-color:#E91B80"/>
					<stop  offset="0.2086" style="stop-color:#D4569A"/>
					<stop  offset="0.3558" style="stop-color:#C28AB1"/>
					<stop  offset="0.4991" style="stop-color:#B3B4C4"/>
					<stop  offset="0.6375" style="stop-color:#A8D5D2"/>
					<stop  offset="0.7699" style="stop-color:#A0ECDD"/>
					<stop  offset="0.8936" style="stop-color:#9BFAE3"/>
					<stop  offset="1" style="stop-color:#99FFE5"/>
				</linearGradient>
				<path class="st46" d="M2151.7,1386.2c3.9-3.7,7.8-3.6,11.2-3.5c3.2,0.1,5.7,0.2,8.3-2.4c2.7-2.6,2.7-5.1,2.7-8.2
					c0-3.5,0-7.4,3.9-11.1c3.9-3.7,7.8-3.6,11.2-3.5c3.2,0.1,5.7,0.2,8.3-2.4c2.7-2.6,2.7-5.1,2.7-8.2c0-3.5,0-7.4,3.9-11.1
					c3.9-3.7,7.8-3.6,11.2-3.5c3.2,0.1,5.7,0.2,8.3-2.4c2.7-2.6,2.7-5.1,2.7-8.2c0-3.5,0-7.4,3.9-11.1c3.9-3.7,7.8-3.6,11.2-3.5
					c3.2,0.1,5.7,0.2,8.3-2.4c2.7-2.6,2.7-5.1,2.7-8.2c0-3.5,0-7.4,3.9-11.1c0.8-0.8,2.1-0.7,2.8,0c0.8,0.8,0.7,2.1,0,2.8
					c-2.7,2.6-2.7,5.1-2.7,8.2c0,3.5,0,7.4-3.9,11.1c-3.9,3.7-7.8,3.6-11.2,3.5c-3.2-0.1-5.7-0.2-8.3,2.4c-2.6,2.6-2.7,5.1-2.7,8.2
					c0,3.5,0,7.4-3.9,11.1c-3.9,3.7-7.8,3.6-11.2,3.5c-3.2-0.1-5.7-0.2-8.3,2.4c-2.7,2.6-2.7,5.1-2.7,8.2c0,3.5,0,7.4-3.9,11.1
					c-3.9,3.7-7.8,3.6-11.2,3.5c-3.2-0.1-5.7-0.2-8.3,2.4c-2.7,2.6-2.7,5.1-2.7,8.2c0,3.5,0,7.4-3.9,11.1c-3.9,3.7-7.8,3.6-11.2,3.5
					c-3.2-0.1-5.7-0.2-8.3,2.4c-2.7,2.6-2.7,5.1-2.7,8.2c0,3.5,0,7.4-3.9,11.1c-0.8,0.8-2.1,0.7-2.8,0c-0.8-0.8-0.7-2.1,0-2.8
					c2.7-2.6,2.7-5.1,2.7-8.2C2147.8,1393.9,2147.8,1390,2151.7,1386.2z"/>
			</g>
			<g>
				
					<linearGradient id="SVGID_43_" gradientUnits="userSpaceOnUse" x1="2504.5696" y1="3014.6243" x2="2671.8496" y2="3014.6243" gradientTransform="matrix(-0.719 0.695 -0.695 -0.719 6145.835 1702.9667)">
					<stop  offset="0" style="stop-color:#F20074"/>
					<stop  offset="6.090000e-02" style="stop-color:#E91B80"/>
					<stop  offset="0.2086" style="stop-color:#D4569A"/>
					<stop  offset="0.3558" style="stop-color:#C28AB1"/>
					<stop  offset="0.4991" style="stop-color:#B3B4C4"/>
					<stop  offset="0.6375" style="stop-color:#A8D5D2"/>
					<stop  offset="0.7699" style="stop-color:#A0ECDD"/>
					<stop  offset="0.8936" style="stop-color:#9BFAE3"/>
					<stop  offset="1" style="stop-color:#99FFE5"/>
				</linearGradient>
				<path class="st47" d="M2139.5,1373.6c3.9-3.7,7.8-3.6,11.2-3.5c3.2,0.1,5.7,0.2,8.3-2.4c2.7-2.6,2.7-5.1,2.7-8.2
					c0-3.5,0-7.4,3.9-11.1c3.9-3.7,7.8-3.6,11.2-3.5c3.2,0.1,5.7,0.2,8.3-2.4c2.7-2.6,2.7-5.1,2.7-8.2c0-3.5,0-7.4,3.9-11.1
					c3.9-3.7,7.8-3.6,11.2-3.5c3.2,0.1,5.7,0.2,8.3-2.4c2.7-2.6,2.7-5.1,2.7-8.2c0-3.5,0-7.4,3.9-11.1c3.9-3.7,7.8-3.6,11.2-3.5
					c3.2,0.1,5.7,0.2,8.3-2.4c2.7-2.6,2.7-5.1,2.7-8.2c0-3.5,0-7.4,3.9-11.1c0.8-0.8,2.1-0.7,2.8,0c0.8,0.8,0.7,2.1,0,2.8
					c-2.7,2.6-2.7,5.1-2.7,8.2c0,3.5,0,7.4-3.9,11.1c-3.9,3.7-7.8,3.6-11.2,3.5c-3.2-0.1-5.7-0.2-8.3,2.4c-2.7,2.6-2.7,5.1-2.7,8.2
					c0,3.5,0,7.4-3.9,11.1c-3.9,3.7-7.8,3.6-11.2,3.5c-3.2-0.1-5.7-0.2-8.3,2.4c-2.7,2.6-2.7,5.1-2.7,8.2c0,3.5,0,7.4-3.9,11.1
					c-3.9,3.7-7.8,3.6-11.2,3.5c-3.2-0.1-5.7-0.2-8.3,2.4c-2.7,2.6-2.7,5.1-2.7,8.2c0,3.5,0,7.4-3.9,11.1c-3.9,3.7-7.8,3.6-11.2,3.5
					c-3.2-0.1-5.7-0.2-8.3,2.4c-2.7,2.6-2.7,5.1-2.7,8.2c0,3.5,0,7.4-3.9,11.1c-0.8,0.8-2.1,0.7-2.8,0c-0.8-0.8-0.7-2.1,0-2.8
					c2.7-2.6,2.7-5.1,2.7-8.2C2135.6,1381.2,2135.6,1377.3,2139.5,1373.6z"/>
				
					<linearGradient id="SVGID_44_" gradientUnits="userSpaceOnUse" x1="2504.5691" y1="3030.2168" x2="2671.8508" y2="3030.2168" gradientTransform="matrix(-0.719 0.695 -0.695 -0.719 6145.835 1702.9667)">
					<stop  offset="0" style="stop-color:#F20074"/>
					<stop  offset="6.090000e-02" style="stop-color:#E91B80"/>
					<stop  offset="0.2086" style="stop-color:#D4569A"/>
					<stop  offset="0.3558" style="stop-color:#C28AB1"/>
					<stop  offset="0.4991" style="stop-color:#B3B4C4"/>
					<stop  offset="0.6375" style="stop-color:#A8D5D2"/>
					<stop  offset="0.7699" style="stop-color:#A0ECDD"/>
					<stop  offset="0.8936" style="stop-color:#9BFAE3"/>
					<stop  offset="1" style="stop-color:#99FFE5"/>
				</linearGradient>
				<path class="st48" d="M2128.6,1362.4c3.9-3.7,7.8-3.6,11.2-3.5c3.2,0.1,5.7,0.2,8.3-2.4c2.7-2.6,2.7-5.1,2.7-8.2
					c0-3.5,0-7.4,3.9-11.1c3.9-3.7,7.8-3.6,11.2-3.5c3.2,0.1,5.7,0.2,8.3-2.4c2.7-2.6,2.7-5.1,2.7-8.2c0-3.5,0-7.4,3.9-11.1
					c3.9-3.7,7.8-3.6,11.2-3.5c3.2,0.1,5.7,0.2,8.3-2.4c2.7-2.6,2.7-5.1,2.7-8.2c0-3.5,0-7.4,3.9-11.1c3.9-3.7,7.8-3.6,11.2-3.5
					c3.2,0.1,5.7,0.2,8.3-2.4c2.7-2.6,2.7-5.1,2.7-8.2c0-3.5,0-7.4,3.9-11.1c0.8-0.8,2.1-0.7,2.8,0c0.8,0.8,0.7,2.1,0,2.8
					c-2.6,2.6-2.7,5.1-2.7,8.2c0,3.5,0,7.4-3.9,11.1c-3.9,3.7-7.8,3.6-11.2,3.5c-3.2-0.1-5.7-0.2-8.3,2.4c-2.7,2.6-2.7,5.1-2.7,8.2
					c0,3.5,0,7.4-3.9,11.1c-3.9,3.7-7.8,3.6-11.2,3.5c-3.2-0.1-5.7-0.2-8.3,2.4c-2.7,2.6-2.7,5.1-2.7,8.2c0,3.5,0,7.4-3.9,11.1
					c-3.9,3.7-7.8,3.6-11.2,3.5c-3.2-0.1-5.7-0.2-8.3,2.4c-2.7,2.6-2.7,5.1-2.7,8.2c0,3.5,0,7.4-3.9,11.1c-3.9,3.7-7.8,3.6-11.2,3.5
					c-3.2-0.1-5.7-0.2-8.3,2.4c-2.7,2.6-2.7,5.1-2.7,8.2c0,3.5,0,7.4-3.9,11.1c-0.8,0.8-2.1,0.7-2.8,0c-0.8-0.8-0.7-2.1,0-2.8
					c2.7-2.6,2.7-5.1,2.7-8.2C2124.7,1370,2124.7,1366.1,2128.6,1362.4z"/>
			</g>
		</g>
	</g>
	<path class="st21" d="M1520.7,2029.2c-5.4,5.2-14,5.1-19.3-0.3l0,0c-5.2-5.4-5.1-14,0.3-19.3l23.6-22.9c5.4-5.2,14-5.1,19.3,0.3
		l0,0c5.2,5.4,5.1,14-0.3,19.3L1520.7,2029.2z"/>
</g>
<g class="st36">
	
		<linearGradient id="SVGID_45_" gradientUnits="userSpaceOnUse" x1="2479.6091" y1="4722.2207" x2="3629.9104" y2="4722.2207" gradientTransform="matrix(-0.719 0.695 -0.695 -0.719 6145.835 1702.9667)">
		<stop  offset="0" style="stop-color:#FFCCFF"/>
		<stop  offset="1" style="stop-color:#34A5DF"/>
	</linearGradient>
	<path class="st49" d="M256.4,686.1L936.7,28.6c40.4-39,105.4-37.9,144.4,2.5l0,0c39,40.4,37.9,105.4-2.4,144.4L398.4,832.9
		C358,872,293,870.9,254,830.5l0,0C215,790.1,216.1,725.1,256.4,686.1z"/>
	
		<linearGradient id="SVGID_46_" gradientUnits="userSpaceOnUse" x1="2642.3928" y1="4513.7295" x2="3982.1497" y2="4513.7295" gradientTransform="matrix(-0.719 0.695 -0.695 -0.719 6145.835 1702.9667)">
		<stop  offset="0" style="stop-color:#CC1A82"/>
		<stop  offset="0.1271" style="stop-color:#D73A9D"/>
		<stop  offset="0.3195" style="stop-color:#E563C0"/>
		<stop  offset="0.5074" style="stop-color:#F084DB"/>
		<stop  offset="0.6872" style="stop-color:#F89BEF"/>
		<stop  offset="0.8553" style="stop-color:#FDA9FB"/>
		<stop  offset="1" style="stop-color:#FFAEFF"/>
	</linearGradient>
	<path class="st50" d="M150.2,953.5l687-664.1c76-73.4,198.2-71.4,271.7,4.6l0,0c73.4,76,71.4,198.2-4.6,271.7l-687,664.1
		c-76,73.4-198.2,71.4-271.7-4.6l0,0C72.2,1149.2,74.3,1027,150.2,953.5z"/>
	
		<linearGradient id="SVGID_47_" gradientUnits="userSpaceOnUse" x1="2517.7634" y1="4411.146" x2="3053.0442" y2="4411.146" gradientTransform="matrix(-0.719 0.695 -0.695 -0.719 6145.835 1702.9667)">
		<stop  offset="0" style="stop-color:#A4CCD0"/>
		<stop  offset="1" style="stop-color:#34A5DF"/>
	</linearGradient>
	<path class="st51" d="M885.6,614.7l345.7-334.2c10.8-10.4,28.1-10.1,38.5,0.7l0,0c10.4,10.8,10.1,28.1-0.7,38.5L923.5,653.9
		c-10.8,10.4-28.1,10.1-38.5-0.7l0,0C874.5,642.4,874.8,625.1,885.6,614.7z"/>
	
		<linearGradient id="SVGID_48_" gradientUnits="userSpaceOnUse" x1="3532.1038" y1="4262.2827" x2="4067.3831" y2="4262.2827" gradientTransform="matrix(-0.719 0.695 -0.695 -0.719 6145.835 1702.9667)">
		<stop  offset="0" style="stop-color:#CC1A82"/>
		<stop  offset="0.1271" style="stop-color:#D73A9D"/>
		<stop  offset="0.3195" style="stop-color:#E563C0"/>
		<stop  offset="0.5074" style="stop-color:#F084DB"/>
		<stop  offset="0.6872" style="stop-color:#F89BEF"/>
		<stop  offset="0.8553" style="stop-color:#FDA9FB"/>
		<stop  offset="1" style="stop-color:#FFAEFF"/>
	</linearGradient>
	<path class="st52" d="M259.8,1426.7l345.7-334.2c10.8-10.4,28.1-10.1,38.5,0.7l0,0c10.4,10.8,10.1,28.1-0.7,38.5l-345.7,334.2
		c-10.8,10.4-28.1,10.1-38.5-0.7l0,0C248.7,1454.4,249,1437.1,259.8,1426.7z"/>
	
		<linearGradient id="SVGID_49_" gradientUnits="userSpaceOnUse" x1="2306.7852" y1="4159.6997" x2="3735.4968" y2="4159.6997" gradientTransform="matrix(-0.719 0.695 -0.695 -0.719 6145.835 1702.9667)">
		<stop  offset="0" style="stop-color:#F20074"/>
		<stop  offset="6.090000e-02" style="stop-color:#E91B80"/>
		<stop  offset="0.2086" style="stop-color:#D4569A"/>
		<stop  offset="0.3558" style="stop-color:#C28AB1"/>
		<stop  offset="0.4991" style="stop-color:#B3B4C4"/>
		<stop  offset="0.6375" style="stop-color:#A8D5D2"/>
		<stop  offset="0.7699" style="stop-color:#A0ECDD"/>
		<stop  offset="0.8936" style="stop-color:#9BFAE3"/>
		<stop  offset="1" style="stop-color:#99FFE5"/>
	</linearGradient>
	<path class="st53" d="M713.4,1334.8l124.1-120c56.1,7.3,115-10,158.6-52.2l597.8-577.8c2.1-2,4.2-4.1,6.2-6.2
		c55.4-58.7-31-143.1-89-87l-57.5,55.6c-23.3,22.6-70.2,11.9-92.8-11.4l-2.4-2.5c-22.6-23.3-26.8-65.6-3.4-88.2l147.4-142.5
		c54.6-52.8-21.7-137-78.9-87c-2.5,2.1-4.9,4.4-7.3,6.7l-687,664.1c-63,60.9-75.6,154.9-35.5,229.3l-99.2,95.9
		c-33.9,32.8-34.6,87.1-1.9,121l0,0C625.2,1366.5,679.5,1367.6,713.4,1334.8z"/>
	<path class="st43" d="M1086.4,705.1l300.8-290.7c22.1-21.4,57.7-20.8,79,1.3l0,0c21.4,22.1,20.8,57.7-1.3,79l-300.8,290.7
		c-22.1,21.4-57.7,20.8-79-1.3l0,0C1063.7,762,1064.3,726.5,1086.4,705.1z"/>
	
		<linearGradient id="SVGID_50_" gradientUnits="userSpaceOnUse" x1="3180.5542" y1="4358.7822" x2="3710.6392" y2="4358.7822" gradientTransform="matrix(-0.719 0.695 -0.695 -0.719 6145.835 1702.9667)">
		<stop  offset="0" style="stop-color:#A4CCD0"/>
		<stop  offset="1" style="stop-color:#34A5DF"/>
	</linearGradient>
	<path class="st54" d="M449.9,1068.9l300.8-290.7c22.1-21.4,57.7-20.8,79,1.3l0,0c21.4,22.1,20.8,57.7-1.3,79l-300.7,290.7
		c-22.1,21.4-57.7,20.8-79-1.3l0,0C427.2,1125.8,427.8,1090.2,449.9,1068.9z"/>
	<g>
		
			<linearGradient id="SVGID_51_" gradientUnits="userSpaceOnUse" x1="3761.1992" y1="4176.4302" x2="4067.531" y2="4176.4302" gradientTransform="matrix(-0.719 0.695 -0.695 -0.719 6145.835 1702.9667)">
			<stop  offset="0" style="stop-color:#CC1A82"/>
			<stop  offset="0.1271" style="stop-color:#D73A9D"/>
			<stop  offset="0.3195" style="stop-color:#E563C0"/>
			<stop  offset="0.5074" style="stop-color:#F084DB"/>
			<stop  offset="0.6872" style="stop-color:#F89BEF"/>
			<stop  offset="0.8553" style="stop-color:#FDA9FB"/>
			<stop  offset="1" style="stop-color:#FFAEFF"/>
		</linearGradient>
		<path class="st55" d="M309.3,1505.5l208.3-201.4c3.3-3.2,8.2-3.4,11-0.5c2.8,2.9,2.4,7.9-0.9,11l-89.7,86.7
			c-3.3,3.2-3.7,8.1-0.9,11c2.8,2.9,7.8,2.7,11-0.5l8.9-8.6l16.9-16.3c3.3-3.2,8.2-3.4,11-0.5c2.8,2.9,2.4,7.9-0.9,11l-127.5,123.2
			c-3.3,3.2-8.2,3.4-11,0.5c-2.8-2.9-2.4-7.9,0.9-11l9-8.7c3.3-3.2,3.7-8.1,0.9-11c-2.8-2.9-7.8-2.7-11,0.5l-25.9,25.1
			c-3.3,3.2-8.2,3.4-11,0.5C305.7,1513.6,306.1,1508.7,309.3,1505.5z"/>
		
			<linearGradient id="SVGID_52_" gradientUnits="userSpaceOnUse" x1="3814.7395" y1="4147.1836" x2="4008.6123" y2="4147.1836" gradientTransform="matrix(-0.719 0.695 -0.695 -0.719 6145.835 1702.9667)">
			<stop  offset="0" style="stop-color:#CC1A82"/>
			<stop  offset="0.1271" style="stop-color:#D73A9D"/>
			<stop  offset="0.3195" style="stop-color:#E563C0"/>
			<stop  offset="0.5074" style="stop-color:#F084DB"/>
			<stop  offset="0.6872" style="stop-color:#F89BEF"/>
			<stop  offset="0.8553" style="stop-color:#FDA9FB"/>
			<stop  offset="1" style="stop-color:#FFAEFF"/>
		</linearGradient>
		<path class="st56" d="M499.5,1362.3L372,1485.6c-3.3,3.2-3.7,8.1-0.9,11c2.8,2.9,7.8,2.7,11-0.5l30.8-29.8c3.3-3.2,8.2-3.4,11-0.5
			c2.8,2.9,2.4,7.9-0.9,11l-12.7,12.3l-16.9,16.3c-3.3,3.2-3.7,8.1-0.9,11c2.8,2.9,7.8,2.7,11-0.5l109.3-105.7
			c3.3-3.2,3.7-8.1,0.9-11c-2.8-2.9-7.8-2.7-11,0.5l-9,8.7c-3.3,3.2-8.2,3.4-11,0.5c-2.8-2.9-2.4-7.9,0.9-11l25.9-25.1
			c3.3-3.2,3.7-8.1,0.9-11C507.8,1359,502.8,1359.2,499.5,1362.3z"/>
	</g>
</g>
</svg>
